<svg xmlns="http://www.w3.org/2000/svg" xmlns:xlink="http://www.w3.org/1999/xlink" width="1080" zoomAndPan="magnify" viewBox="0 0 810 809.999993" height="1080" preserveAspectRatio="xMidYMid meet" version="1.0"><defs><g/><clipPath id="ca0cf074c9"><path d="M 566.671875 57.132812 L 642.859375 57.132812 L 642.859375 165.957031 L 566.671875 165.957031 Z M 566.671875 57.132812 " clip-rule="nonzero"/></clipPath><clipPath id="f6d192a007"><path d="M 166.574219 57.132812 L 242.761719 57.132812 L 242.761719 165.957031 L 166.574219 165.957031 Z M 166.574219 57.132812 " clip-rule="nonzero"/></clipPath></defs><path fill="#000000" d="M 396.667969 131.234375 L 422.117188 131.234375 L 448.609375 131.753906 L 467.566406 132.535156 L 486.527344 133.574219 L 503.667969 134.871094 L 522.625 136.6875 L 535.613281 138.246094 L 548.335938 140.066406 L 561.582031 142.402344 L 572.75 144.738281 L 580.542969 146.816406 L 586.773438 148.894531 L 591.449219 150.972656 L 593.265625 152.273438 L 594.304688 153.828125 L 594.566406 154.609375 L 594.566406 158.765625 L 593.785156 160.0625 L 591.710938 161.101562 L 586.773438 161.621094 L 578.203125 162.140625 L 569.375 162.398438 L 551.195312 162.660156 L 513.535156 162.917969 L 422.636719 163.4375 L 259.539062 163.957031 L 220.582031 163.957031 L 218.765625 163.179688 L 217.46875 161.878906 L 216.6875 160.324219 L 216.6875 157.464844 L 217.988281 155.386719 L 220.0625 153.570312 L 223.699219 151.492188 L 230.453125 148.375 L 238.761719 145.777344 L 245.777344 143.960938 L 257.460938 141.625 L 270.1875 139.546875 L 286.03125 137.46875 L 297.976562 136.167969 L 315.117188 134.609375 L 334.335938 133.3125 L 349.398438 132.535156 L 369.917969 131.753906 L 380.566406 131.496094 Z M 396.667969 131.234375 " fill-opacity="1" fill-rule="nonzero"/><path fill="#000000" d="M 619.5 173.046875 L 633.261719 173.046875 L 636.378906 173.566406 L 638.714844 174.605469 L 641.054688 176.164062 L 642.613281 178.242188 L 643.390625 180.320312 L 643.390625 182.398438 L 642.351562 185.253906 L 640.015625 187.59375 L 636.898438 189.148438 L 634.820312 189.667969 L 631.964844 189.929688 L 176.171875 192.265625 L 172.539062 191.746094 L 169.941406 190.449219 L 167.863281 188.371094 L 166.824219 186.035156 L 166.5625 184.996094 L 166.5625 182.65625 L 167.601562 179.800781 L 168.902344 177.984375 L 171.238281 176.425781 L 173.578125 175.644531 L 175.394531 175.386719 L 214.351562 175.125 Z M 619.5 173.046875 " fill-opacity="1" fill-rule="nonzero"/><path fill="#000000" d="M 368.617188 91.5 L 433.804688 91.5 L 434.324219 91.757812 L 436.664062 100.070312 L 439.519531 111.496094 L 439.519531 113.835938 L 438.738281 114.355469 L 399.003906 114.355469 L 364.722656 114.09375 L 364.464844 113.835938 L 364.464844 111.238281 L 367.578125 93.578125 L 368.097656 91.757812 Z M 368.617188 91.5 " fill-opacity="1" fill-rule="nonzero"/><path fill="#000000" d="M 619.5 173.046875 L 633.261719 173.046875 L 636.378906 173.566406 L 638.714844 174.605469 L 641.054688 176.164062 L 642.613281 178.242188 L 643.390625 180.320312 L 643.390625 182.398438 L 642.351562 185.253906 L 640.015625 187.59375 L 636.898438 189.148438 L 634.820312 189.667969 L 631.964844 189.929688 L 176.171875 192.265625 L 172.539062 191.746094 L 169.941406 190.449219 L 167.863281 188.371094 L 166.824219 186.035156 L 166.5625 184.996094 L 166.5625 182.65625 L 167.601562 179.800781 L 168.902344 177.984375 L 171.238281 176.425781 L 173.578125 175.644531 L 175.394531 175.386719 L 214.351562 175.125 Z M 602.355469 173.566406 L 454.84375 174.347656 L 198.507812 175.644531 L 174.613281 175.90625 L 172.277344 176.425781 L 169.679688 177.984375 L 168.121094 179.800781 L 167.082031 182.65625 L 167.082031 184.996094 L 168.121094 187.851562 L 169.679688 189.667969 L 171.238281 190.707031 L 174.613281 191.746094 L 204.222656 191.746094 L 343.945312 190.96875 L 633.523438 189.410156 L 636.378906 188.890625 L 640.015625 187.074219 L 641.832031 185.253906 L 642.871094 182.917969 L 642.871094 179.800781 L 641.574219 177.203125 L 639.753906 175.644531 L 637.160156 174.347656 L 634.042969 173.566406 Z M 602.355469 173.566406 " fill-opacity="1" fill-rule="nonzero"/><path fill="#000000" d="M 368.097656 91.757812 L 368.617188 92.019531 L 368.359375 95.65625 L 368.097656 97.734375 L 367.839844 97.992188 L 367.058594 103.707031 L 366.800781 103.964844 L 366.28125 108.378906 L 365.761719 108.378906 L 365.5 113.054688 L 364.980469 113.054688 L 364.980469 113.574219 L 365.761719 113.316406 L 439 113.316406 L 438.480469 112.015625 L 437.183594 106.304688 L 436.664062 104.746094 L 436.144531 101.886719 L 435.625 100.328125 L 434.585938 96.175781 L 434.066406 94.617188 L 433.804688 91.757812 L 434.324219 91.757812 L 436.664062 100.070312 L 439.519531 111.496094 L 439.519531 113.835938 L 438.738281 114.355469 L 399.003906 114.355469 L 364.722656 114.09375 L 364.464844 113.835938 L 364.464844 111.238281 L 367.578125 93.578125 Z M 368.097656 91.757812 " fill-opacity="1" fill-rule="nonzero"/><path fill="#000000" d="M 368.617188 91.5 L 433.804688 91.5 L 433.546875 92.019531 L 431.207031 92.277344 L 430.6875 92.539062 L 369.65625 92.539062 Z M 368.617188 91.5 " fill-opacity="1" fill-rule="nonzero"/><g clip-path="url(#ca0cf074c9)"><path fill="#ffffff" d="M 594.859375 56.933594 C 589.589844 62.0625 582.449219 72.320312 586.324219 82.226562 C 588.714844 88.335938 595.832031 89.28125 603.765625 94.621094 C 607.171875 96.910156 604.863281 101.523438 597.164062 103.304688 C 591.28125 104.664062 585.414062 106.121094 579.730469 108.164062 C 571.378906 111.164062 566.671875 116.21875 566.671875 122.59375 C 566.671875 128.792969 570.589844 133.269531 578.164062 135.265625 C 583.503906 136.671875 587.296875 136.667969 601.375 138.351562 C 609.160156 139.28125 619.199219 141.421875 622.847656 148.363281 C 627.363281 156.949219 618.546875 165 612.261719 163.699219 C 617.734375 166.804688 630.585938 167.519531 637.792969 160.511719 C 642.304688 156.121094 643.878906 149.683594 642.214844 143.613281 C 640.398438 136.992188 633.140625 130.808594 626.605469 128.703125 C 602.96875 121.089844 581.191406 131.003906 580.488281 121.703125 C 579.960938 114.734375 591.382812 115.21875 608.988281 111.445312 C 616.867188 109.757812 625.277344 105.152344 622.53125 97.363281 C 617.710938 83.679688 579.597656 88.867188 594.859375 56.933594 " fill-opacity="1" fill-rule="nonzero"/></g><g clip-path="url(#f6d192a007)"><path fill="#ffffff" d="M 214.574219 56.933594 C 219.84375 62.0625 226.984375 72.320312 223.109375 82.226562 C 220.71875 88.335938 213.601562 89.28125 205.667969 94.621094 C 202.261719 96.910156 204.570312 101.523438 212.265625 103.304688 C 218.152344 104.664062 224.019531 106.121094 229.703125 108.164062 C 238.050781 111.164062 242.761719 116.21875 242.761719 122.59375 C 242.761719 128.792969 238.84375 133.269531 231.269531 135.265625 C 225.929688 136.671875 222.132812 136.667969 208.058594 138.351562 C 200.269531 139.28125 190.234375 141.421875 186.585938 148.363281 C 182.070312 156.949219 190.882812 165 197.167969 163.699219 C 191.695312 166.804688 178.84375 167.519531 171.640625 160.511719 C 167.128906 156.121094 165.554688 149.683594 167.21875 143.613281 C 169.035156 136.992188 176.292969 130.808594 182.828125 128.703125 C 206.464844 121.089844 228.242188 131.003906 228.945312 121.703125 C 229.472656 114.734375 218.046875 115.21875 200.445312 111.445312 C 192.566406 109.757812 184.15625 105.152344 186.902344 97.363281 C 191.722656 83.679688 229.835938 88.867188 214.574219 56.933594 " fill-opacity="1" fill-rule="nonzero"/></g><path fill="#000000" d="M 209.617188 646.800781 L 197.007812 646.800781 L 194.148438 646.328125 L 192.007812 645.375 L 189.867188 643.945312 L 188.4375 642.042969 L 187.726562 640.136719 L 187.726562 638.234375 L 188.675781 635.617188 L 190.816406 633.476562 L 193.675781 632.046875 L 195.574219 631.570312 L 198.195312 631.332031 L 615.835938 629.191406 L 619.167969 629.667969 L 621.550781 630.855469 L 623.449219 632.761719 L 624.402344 634.902344 L 624.640625 635.855469 L 624.640625 637.996094 L 623.691406 640.613281 L 622.5 642.28125 L 620.359375 643.710938 L 618.21875 644.421875 L 616.550781 644.660156 L 580.855469 644.898438 Z M 209.617188 646.800781 " fill-opacity="1" fill-rule="nonzero"/><path fill="#000000" d="M 209.617188 646.800781 L 197.007812 646.800781 L 194.148438 646.328125 L 192.007812 645.375 L 189.867188 643.945312 L 188.4375 642.042969 L 187.726562 640.136719 L 187.726562 638.234375 L 188.675781 635.617188 L 190.816406 633.476562 L 193.675781 632.046875 L 195.574219 631.570312 L 198.195312 631.332031 L 615.835938 629.191406 L 619.167969 629.667969 L 621.550781 630.855469 L 623.449219 632.761719 L 624.402344 634.902344 L 624.640625 635.855469 L 624.640625 637.996094 L 623.691406 640.613281 L 622.5 642.28125 L 620.359375 643.710938 L 618.21875 644.421875 L 616.550781 644.660156 L 580.855469 644.898438 Z M 225.324219 646.328125 L 360.492188 645.609375 L 595.371094 644.421875 L 617.265625 644.183594 L 619.40625 643.710938 L 621.785156 642.28125 L 623.214844 640.613281 L 624.164062 637.996094 L 624.164062 635.855469 L 623.214844 633.238281 L 621.785156 631.570312 L 620.359375 630.621094 L 617.265625 629.667969 L 590.132812 629.667969 L 462.105469 630.382812 L 196.765625 631.808594 L 194.148438 632.285156 L 190.816406 633.953125 L 189.152344 635.617188 L 188.199219 637.757812 L 188.199219 640.613281 L 189.390625 642.996094 L 191.054688 644.421875 L 193.433594 645.609375 L 196.292969 646.328125 Z M 225.324219 646.328125 " fill-opacity="1" fill-rule="nonzero"/><g fill="#000000" fill-opacity="1"><g transform="translate(242.730416, 326.71917)"><g><path d="M 92.984375 -26.796875 C 94.023438 -26.796875 94.847656 -26.3125 95.453125 -25.34375 C 96.054688 -24.382812 96.359375 -23.066406 96.359375 -21.390625 C 96.359375 -18.265625 95.59375 -15.78125 94.0625 -13.9375 C 89.582031 -8.570312 85.238281 -4.804688 81.03125 -2.640625 C 76.832031 -0.484375 71.769531 0.59375 65.84375 0.59375 C 61.675781 0.59375 57.828125 0.078125 54.296875 -0.953125 C 50.773438 -1.992188 46.492188 -3.554688 41.453125 -5.640625 C 36.878906 -7.648438 32.472656 -9.296875 28.234375 -10.578125 C 24.148438 -3.128906 18.019531 0.59375 9.84375 0.59375 C 5.363281 0.59375 1.785156 -0.425781 -0.890625 -2.46875 C -3.578125 -4.507812 -4.921875 -7.128906 -4.921875 -10.328125 C -4.921875 -14.253906 -3.039062 -17.519531 0.71875 -20.125 C 4.488281 -22.726562 9.492188 -24.03125 15.734375 -24.03125 L 17.296875 -24.03125 L 19.46875 -58.984375 C 19.945312 -66.992188 21.382812 -73.601562 23.78125 -78.8125 C 26.1875 -84.019531 29.515625 -88.460938 33.765625 -92.140625 C 37.441406 -95.347656 41.644531 -97.769531 46.375 -99.40625 C 51.101562 -101.050781 56.109375 -101.875 61.390625 -101.875 C 70.035156 -101.875 76.679688 -99.628906 81.328125 -95.140625 C 85.972656 -90.660156 88.296875 -84.816406 88.296875 -77.609375 C 88.296875 -72.722656 87.414062 -68.773438 85.65625 -65.765625 C 83.894531 -62.765625 81.453125 -61.265625 78.328125 -61.265625 C 76.085938 -61.265625 74.328125 -61.804688 73.046875 -62.890625 C 71.765625 -63.972656 71.125 -65.515625 71.125 -67.515625 C 71.125 -68.234375 71.285156 -69.554688 71.609375 -71.484375 C 72.085938 -73.722656 72.328125 -75.722656 72.328125 -77.484375 C 72.328125 -80.847656 71.34375 -83.507812 69.375 -85.46875 C 67.414062 -87.4375 64.4375 -88.421875 60.4375 -88.421875 C 53.382812 -88.421875 47.9375 -86.117188 44.09375 -81.515625 C 40.25 -76.910156 37.804688 -69.679688 36.765625 -59.828125 L 34 -32.5625 C 33.601562 -28.71875 33.082031 -25.394531 32.4375 -22.59375 C 37.5625 -21.707031 43.96875 -20.300781 51.65625 -18.375 C 56.144531 -17.257812 59.585938 -16.460938 61.984375 -15.984375 C 64.390625 -15.503906 66.515625 -15.265625 68.359375 -15.265625 C 73.003906 -15.265625 76.988281 -16.039062 80.3125 -17.59375 C 83.632812 -19.15625 86.78125 -21.660156 89.75 -25.109375 C 90.707031 -26.234375 91.785156 -26.796875 92.984375 -26.796875 Z M 92.984375 -26.796875 "/></g></g></g><g fill="#000000" fill-opacity="1"><g transform="translate(323.586798, 326.71917)"><g><path d="M 20.546875 0.59375 C 15.578125 0.59375 11.609375 -1.207031 8.640625 -4.8125 C 5.679688 -8.414062 4.203125 -13.140625 4.203125 -18.984375 C 4.203125 -25.390625 5.679688 -31.457031 8.640625 -37.1875 C 11.609375 -42.914062 15.554688 -47.519531 20.484375 -51 C 25.410156 -54.476562 30.632812 -56.21875 36.15625 -56.21875 C 37.925781 -56.21875 39.109375 -55.878906 39.703125 -55.203125 C 40.304688 -54.523438 40.804688 -53.304688 41.203125 -51.546875 C 42.890625 -51.859375 44.65625 -52.015625 46.5 -52.015625 C 50.414062 -52.015625 52.375 -50.613281 52.375 -47.8125 C 52.375 -46.132812 51.773438 -42.128906 50.578125 -35.796875 C 48.734375 -26.585938 47.8125 -20.179688 47.8125 -16.578125 C 47.8125 -15.378906 48.113281 -14.414062 48.71875 -13.6875 C 49.320312 -12.96875 50.101562 -12.609375 51.0625 -12.609375 C 52.582031 -12.609375 54.421875 -13.585938 56.578125 -15.546875 C 58.742188 -17.515625 61.671875 -20.703125 65.359375 -25.109375 C 66.316406 -26.234375 67.394531 -26.796875 68.59375 -26.796875 C 69.632812 -26.796875 70.457031 -26.3125 71.0625 -25.34375 C 71.664062 -24.382812 71.96875 -23.066406 71.96875 -21.390625 C 71.96875 -18.179688 71.207031 -15.695312 69.6875 -13.9375 C 66.394531 -9.851562 62.90625 -6.410156 59.21875 -3.609375 C 55.539062 -0.804688 51.976562 0.59375 48.53125 0.59375 C 45.894531 0.59375 43.472656 -0.304688 41.265625 -2.109375 C 39.066406 -3.910156 37.40625 -6.367188 36.28125 -9.484375 C 32.113281 -2.765625 26.867188 0.59375 20.546875 0.59375 Z M 24.875 -11.53125 C 26.632812 -11.53125 28.3125 -12.570312 29.90625 -14.65625 C 31.507812 -16.738281 32.675781 -19.503906 33.40625 -22.953125 L 37.84375 -45.046875 C 34.476562 -44.972656 31.375 -43.710938 28.53125 -41.265625 C 25.6875 -38.828125 23.421875 -35.601562 21.734375 -31.59375 C 20.054688 -27.59375 19.21875 -23.347656 19.21875 -18.859375 C 19.21875 -16.378906 19.71875 -14.535156 20.71875 -13.328125 C 21.71875 -12.128906 23.101562 -11.53125 24.875 -11.53125 Z M 24.875 -11.53125 "/></g></g></g><g fill="#000000" fill-opacity="1"><g transform="translate(52.493149, 458.228969)"><g><path d="M 149.46875 -147.5 C 153.132812 -146.789062 155.882812 -145.546875 157.71875 -143.765625 C 159.5625 -141.992188 160.484375 -139.921875 160.484375 -137.546875 C 160.484375 -133.640625 159.382812 -130.796875 157.1875 -129.015625 C 155 -127.242188 151.535156 -126.535156 146.796875 -126.890625 C 136.128906 -127.722656 127.800781 -128.285156 121.8125 -128.578125 C 115.832031 -128.878906 107.988281 -129.085938 98.28125 -129.203125 C 93.894531 -107.398438 89.863281 -85.484375 86.1875 -63.453125 C 84.882812 -55.390625 83.519531 -46.054688 82.09375 -35.453125 C 80.675781 -24.847656 79.734375 -16.289062 79.265625 -9.78125 C 79.023438 -6.34375 77.601562 -3.703125 75 -1.859375 C 72.394531 -0.0234375 69.253906 0.890625 65.578125 0.890625 C 61.671875 0.890625 58.648438 -0.0546875 56.515625 -1.953125 C 54.378906 -3.847656 53.3125 -6.335938 53.3125 -9.421875 C 53.3125 -12.265625 53.753906 -16.972656 54.640625 -23.546875 C 55.535156 -30.117188 56.578125 -37.019531 57.765625 -44.25 C 59.066406 -51.476562 60.070312 -57.757812 60.78125 -63.09375 C 62.082031 -72.09375 63.5625 -81.035156 65.21875 -89.921875 C 66.875 -98.804688 68.535156 -107.21875 70.203125 -115.15625 C 70.554688 -116.9375 70.96875 -118.984375 71.4375 -121.296875 C 71.914062 -123.609375 72.453125 -126.1875 73.046875 -129.03125 C 61.429688 -128.664062 52.304688 -127.710938 45.671875 -126.171875 C 39.035156 -124.640625 34.328125 -122.476562 31.546875 -119.6875 C 28.765625 -116.90625 27.375 -113.320312 27.375 -108.9375 C 27.375 -104.914062 28.554688 -101.066406 30.921875 -97.390625 C 31.398438 -96.554688 31.640625 -95.664062 31.640625 -94.71875 C 31.640625 -92.46875 30.304688 -90.363281 27.640625 -88.40625 C 24.972656 -86.457031 22.21875 -85.484375 19.375 -85.484375 C 17.351562 -85.484375 15.691406 -86.078125 14.390625 -87.265625 C 12.023438 -89.273438 10.070312 -92.144531 8.53125 -95.875 C 6.988281 -99.613281 6.21875 -103.851562 6.21875 -108.59375 C 6.21875 -118.65625 9.503906 -126.738281 16.078125 -132.84375 C 22.660156 -138.945312 32.671875 -143.421875 46.109375 -146.265625 C 59.554688 -149.109375 76.828125 -150.53125 97.921875 -150.53125 C 110.953125 -150.53125 121.347656 -150.289062 129.109375 -149.8125 C 136.867188 -149.34375 143.65625 -148.570312 149.46875 -147.5 Z M 149.46875 -147.5 "/></g></g></g><g fill="#000000" fill-opacity="1"><g transform="translate(169.605469, 458.228969)"><g><path d="M 30.390625 0.890625 C 23.046875 0.890625 17.179688 -1.773438 12.796875 -7.109375 C 8.410156 -12.441406 6.21875 -19.429688 6.21875 -28.078125 C 6.21875 -37.554688 8.410156 -46.53125 12.796875 -55 C 17.179688 -63.46875 23.015625 -70.28125 30.296875 -75.4375 C 37.585938 -80.59375 45.320312 -83.171875 53.5 -83.171875 C 56.101562 -83.171875 57.847656 -82.664062 58.734375 -81.65625 C 59.617188 -80.65625 60.359375 -78.847656 60.953125 -76.234375 C 63.441406 -76.710938 66.050781 -76.953125 68.78125 -76.953125 C 74.582031 -76.953125 77.484375 -74.878906 77.484375 -70.734375 C 77.484375 -68.242188 76.59375 -62.316406 74.8125 -52.953125 C 72.09375 -39.328125 70.734375 -29.851562 70.734375 -24.53125 C 70.734375 -22.75 71.175781 -21.320312 72.0625 -20.25 C 72.945312 -19.1875 74.101562 -18.65625 75.53125 -18.65625 C 77.78125 -18.65625 80.503906 -20.109375 83.703125 -23.015625 C 86.898438 -25.921875 91.222656 -30.628906 96.671875 -37.140625 C 98.097656 -38.796875 99.703125 -39.625 101.484375 -39.625 C 103.015625 -39.625 104.222656 -38.910156 105.109375 -37.484375 C 106.003906 -36.066406 106.453125 -34.117188 106.453125 -31.640625 C 106.453125 -26.898438 105.328125 -23.222656 103.078125 -20.609375 C 98.222656 -14.566406 93.066406 -9.472656 87.609375 -5.328125 C 82.160156 -1.179688 76.890625 0.890625 71.796875 0.890625 C 67.890625 0.890625 64.304688 -0.441406 61.046875 -3.109375 C 57.785156 -5.773438 55.328125 -9.421875 53.671875 -14.046875 C 47.503906 -4.085938 39.742188 0.890625 30.390625 0.890625 Z M 36.78125 -17.0625 C 39.394531 -17.0625 41.882812 -18.597656 44.25 -21.671875 C 46.625 -24.753906 48.34375 -28.84375 49.40625 -33.9375 L 55.984375 -66.640625 C 51.003906 -66.523438 46.410156 -64.660156 42.203125 -61.046875 C 38.003906 -57.429688 34.660156 -52.660156 32.171875 -46.734375 C 29.679688 -40.816406 28.4375 -34.539062 28.4375 -27.90625 C 28.4375 -24.226562 29.175781 -21.5 30.65625 -19.71875 C 32.132812 -17.945312 34.175781 -17.0625 36.78125 -17.0625 Z M 36.78125 -17.0625 "/></g></g></g><g fill="#000000" fill-opacity="1"><g transform="translate(246.377121, 458.228969)"><g><path d="M 21.15625 0.890625 C 16.644531 0.890625 13.472656 -1.476562 11.640625 -6.21875 C 9.804688 -10.957031 8.890625 -18.539062 8.890625 -28.96875 C 8.890625 -44.375 11.082031 -59.003906 15.46875 -72.859375 C 16.53125 -76.296875 18.273438 -78.8125 20.703125 -80.40625 C 23.128906 -82.007812 26.535156 -82.8125 30.921875 -82.8125 C 33.296875 -82.8125 34.957031 -82.515625 35.90625 -81.921875 C 36.851562 -81.335938 37.328125 -80.210938 37.328125 -78.546875 C 37.328125 -76.648438 36.4375 -72.382812 34.65625 -65.75 C 33.46875 -61.007812 32.519531 -56.890625 31.8125 -53.390625 C 31.101562 -49.898438 30.507812 -45.550781 30.03125 -40.34375 C 33.226562 -49.582031 37.046875 -57.398438 41.484375 -63.796875 C 45.929688 -70.191406 50.492188 -74.957031 55.171875 -78.09375 C 59.859375 -81.238281 64.273438 -82.8125 68.421875 -82.8125 C 72.566406 -82.8125 75.5 -81.863281 77.21875 -79.96875 C 78.9375 -78.070312 79.796875 -75.171875 79.796875 -71.265625 C 79.796875 -67.472656 78.671875 -60.601562 76.421875 -50.65625 C 75.472656 -46.382812 74.820312 -43.179688 74.46875 -41.046875 C 80.382812 -55.617188 86.957031 -66.222656 94.1875 -72.859375 C 101.414062 -79.492188 108.171875 -82.8125 114.453125 -82.8125 C 122.148438 -82.8125 126 -78.960938 126 -71.265625 C 126 -66.640625 124.695312 -58.285156 122.09375 -46.203125 C 119.84375 -35.898438 118.71875 -29.085938 118.71875 -25.765625 C 118.71875 -21.023438 120.4375 -18.65625 123.875 -18.65625 C 126.238281 -18.65625 129.050781 -20.109375 132.3125 -23.015625 C 135.570312 -25.921875 139.925781 -30.628906 145.375 -37.140625 C 146.789062 -38.796875 148.390625 -39.625 150.171875 -39.625 C 151.710938 -39.625 152.925781 -38.910156 153.8125 -37.484375 C 154.695312 -36.066406 155.140625 -34.117188 155.140625 -31.640625 C 155.140625 -26.898438 154.015625 -23.222656 151.765625 -20.609375 C 146.671875 -14.335938 141.191406 -9.1875 135.328125 -5.15625 C 129.460938 -1.125 122.800781 0.890625 115.34375 0.890625 C 109.300781 0.890625 104.738281 -0.851562 101.65625 -4.34375 C 98.570312 -7.84375 97.03125 -12.910156 97.03125 -19.546875 C 97.03125 -22.867188 97.859375 -28.796875 99.515625 -37.328125 C 101.054688 -44.785156 101.828125 -49.9375 101.828125 -52.78125 C 101.828125 -54.675781 101.175781 -55.625 99.875 -55.625 C 98.332031 -55.625 96.140625 -53.640625 93.296875 -49.671875 C 90.453125 -45.703125 87.609375 -40.457031 84.765625 -33.9375 C 81.921875 -27.425781 79.613281 -20.554688 77.84375 -13.328125 C 76.539062 -7.640625 75.03125 -3.847656 73.3125 -1.953125 C 71.59375 -0.0546875 68.835938 0.890625 65.046875 0.890625 C 61.140625 0.890625 58.207031 -0.972656 56.25 -4.703125 C 54.289062 -8.441406 53.3125 -12.976562 53.3125 -18.3125 C 53.3125 -22.8125 53.90625 -29.328125 55.09375 -37.859375 C 56.039062 -45.441406 56.515625 -50.414062 56.515625 -52.78125 C 56.515625 -54.675781 55.863281 -55.625 54.5625 -55.625 C 52.78125 -55.625 50.523438 -53.488281 47.796875 -49.21875 C 45.078125 -44.957031 42.441406 -39.507812 39.890625 -32.875 C 37.347656 -26.238281 35.304688 -19.722656 33.765625 -13.328125 C 32.460938 -7.753906 30.953125 -3.988281 29.234375 -2.03125 C 27.515625 -0.0820312 24.820312 0.890625 21.15625 0.890625 Z M 21.15625 0.890625 "/></g></g></g><g fill="#000000" fill-opacity="1"><g transform="translate(371.841904, 458.228969)"><g><path d="M 30.390625 0.890625 C 23.046875 0.890625 17.179688 -1.773438 12.796875 -7.109375 C 8.410156 -12.441406 6.21875 -19.429688 6.21875 -28.078125 C 6.21875 -37.554688 8.410156 -46.53125 12.796875 -55 C 17.179688 -63.46875 23.015625 -70.28125 30.296875 -75.4375 C 37.585938 -80.59375 45.320312 -83.171875 53.5 -83.171875 C 56.101562 -83.171875 57.847656 -82.664062 58.734375 -81.65625 C 59.617188 -80.65625 60.359375 -78.847656 60.953125 -76.234375 C 63.441406 -76.710938 66.050781 -76.953125 68.78125 -76.953125 C 74.582031 -76.953125 77.484375 -74.878906 77.484375 -70.734375 C 77.484375 -68.242188 76.59375 -62.316406 74.8125 -52.953125 C 72.09375 -39.328125 70.734375 -29.851562 70.734375 -24.53125 C 70.734375 -22.75 71.175781 -21.320312 72.0625 -20.25 C 72.945312 -19.1875 74.101562 -18.65625 75.53125 -18.65625 C 77.78125 -18.65625 80.503906 -20.109375 83.703125 -23.015625 C 86.898438 -25.921875 91.222656 -30.628906 96.671875 -37.140625 C 98.097656 -38.796875 99.703125 -39.625 101.484375 -39.625 C 103.015625 -39.625 104.222656 -38.910156 105.109375 -37.484375 C 106.003906 -36.066406 106.453125 -34.117188 106.453125 -31.640625 C 106.453125 -26.898438 105.328125 -23.222656 103.078125 -20.609375 C 98.222656 -14.566406 93.066406 -9.472656 87.609375 -5.328125 C 82.160156 -1.179688 76.890625 0.890625 71.796875 0.890625 C 67.890625 0.890625 64.304688 -0.441406 61.046875 -3.109375 C 57.785156 -5.773438 55.328125 -9.421875 53.671875 -14.046875 C 47.503906 -4.085938 39.742188 0.890625 30.390625 0.890625 Z M 36.78125 -17.0625 C 39.394531 -17.0625 41.882812 -18.597656 44.25 -21.671875 C 46.625 -24.753906 48.34375 -28.84375 49.40625 -33.9375 L 55.984375 -66.640625 C 51.003906 -66.523438 46.410156 -64.660156 42.203125 -61.046875 C 38.003906 -57.429688 34.660156 -52.660156 32.171875 -46.734375 C 29.679688 -40.816406 28.4375 -34.539062 28.4375 -27.90625 C 28.4375 -24.226562 29.175781 -21.5 30.65625 -19.71875 C 32.132812 -17.945312 34.175781 -17.0625 36.78125 -17.0625 Z M 36.78125 -17.0625 "/></g></g></g><g fill="#000000" fill-opacity="1"><g transform="translate(448.613543, 458.228969)"><g><path d="M 75.890625 -39.625 C 77.429688 -39.625 78.644531 -38.910156 79.53125 -37.484375 C 80.414062 -36.066406 80.859375 -34.117188 80.859375 -31.640625 C 80.859375 -26.898438 79.734375 -23.222656 77.484375 -20.609375 C 72.390625 -14.335938 66.847656 -9.1875 60.859375 -5.15625 C 54.878906 -1.125 48.097656 0.890625 40.515625 0.890625 C 30.085938 0.890625 22.359375 -3.847656 17.328125 -13.328125 C 12.296875 -22.804688 9.78125 -35.066406 9.78125 -50.109375 C 9.78125 -64.566406 11.644531 -81.035156 15.375 -99.515625 C 19.101562 -118.003906 24.609375 -133.882812 31.890625 -147.15625 C 39.179688 -160.425781 47.863281 -167.0625 57.9375 -167.0625 C 63.625 -167.0625 68.09375 -164.421875 71.34375 -159.140625 C 74.601562 -153.867188 76.234375 -146.316406 76.234375 -136.484375 C 76.234375 -122.390625 72.320312 -106.039062 64.5 -87.4375 C 56.6875 -68.832031 46.085938 -50.410156 32.703125 -32.171875 C 33.523438 -27.304688 34.882812 -23.835938 36.78125 -21.765625 C 38.675781 -19.691406 41.164062 -18.65625 44.25 -18.65625 C 49.101562 -18.65625 53.367188 -20.046875 57.046875 -22.828125 C 60.722656 -25.617188 65.40625 -30.390625 71.09375 -37.140625 C 72.507812 -38.796875 74.109375 -39.625 75.890625 -39.625 Z M 54.03125 -149.46875 C 51.300781 -149.46875 48.21875 -144.546875 44.78125 -134.703125 C 41.34375 -124.867188 38.320312 -112.664062 35.71875 -98.09375 C 33.113281 -83.519531 31.691406 -69.539062 31.453125 -56.15625 C 39.867188 -70.019531 46.5625 -83.910156 51.53125 -97.828125 C 56.507812 -111.753906 59 -124.460938 59 -135.953125 C 59 -144.960938 57.34375 -149.46875 54.03125 -149.46875 Z M 54.03125 -149.46875 "/></g></g></g><g fill="#000000" fill-opacity="1"><g transform="translate(499.794652, 458.228969)"><g><path d="M 87.796875 -39.625 C 89.335938 -39.625 90.550781 -38.910156 91.4375 -37.484375 C 92.320312 -36.066406 92.765625 -34.117188 92.765625 -31.640625 C 92.765625 -26.898438 91.640625 -23.222656 89.390625 -20.609375 C 85.003906 -15.285156 78.8125 -10.367188 70.8125 -5.859375 C 62.820312 -1.359375 54.265625 0.890625 45.140625 0.890625 C 32.703125 0.890625 23.046875 -2.484375 16.171875 -9.234375 C 9.296875 -15.992188 5.859375 -25.238281 5.859375 -36.96875 C 5.859375 -45.144531 7.578125 -52.753906 11.015625 -59.796875 C 14.453125 -66.847656 19.222656 -72.445312 25.328125 -76.59375 C 31.429688 -80.738281 38.332031 -82.8125 46.03125 -82.8125 C 52.90625 -82.8125 58.414062 -80.765625 62.5625 -76.671875 C 66.707031 -72.585938 68.78125 -67.050781 68.78125 -60.0625 C 68.78125 -51.894531 65.847656 -44.878906 59.984375 -39.015625 C 54.117188 -33.148438 44.195312 -28.5 30.21875 -25.0625 C 33.175781 -19.613281 38.800781 -16.890625 47.09375 -16.890625 C 52.425781 -16.890625 58.5 -18.753906 65.3125 -22.484375 C 72.125 -26.210938 78.019531 -31.097656 83 -37.140625 C 84.414062 -38.796875 86.015625 -39.625 87.796875 -39.625 Z M 43.015625 -65.40625 C 38.628906 -65.40625 34.925781 -62.851562 31.90625 -57.75 C 28.882812 -52.65625 27.375 -46.5 27.375 -39.28125 L 27.375 -38.921875 C 34.363281 -40.578125 39.867188 -43.0625 43.890625 -46.375 C 47.921875 -49.695312 49.9375 -53.550781 49.9375 -57.9375 C 49.9375 -60.1875 49.3125 -61.992188 48.0625 -63.359375 C 46.820312 -64.722656 45.140625 -65.40625 43.015625 -65.40625 Z M 43.015625 -65.40625 "/></g></g></g><g fill="#000000" fill-opacity="1"><g transform="translate(562.882454, 458.228969)"><g><path d="M 21.15625 0.890625 C 16.644531 0.890625 13.472656 -1.476562 11.640625 -6.21875 C 9.804688 -10.957031 8.890625 -18.539062 8.890625 -28.96875 C 8.890625 -44.375 11.082031 -59.003906 15.46875 -72.859375 C 16.53125 -76.296875 18.273438 -78.8125 20.703125 -80.40625 C 23.128906 -82.007812 26.535156 -82.8125 30.921875 -82.8125 C 33.296875 -82.8125 34.957031 -82.515625 35.90625 -81.921875 C 36.851562 -81.335938 37.328125 -80.210938 37.328125 -78.546875 C 37.328125 -76.648438 36.4375 -72.382812 34.65625 -65.75 C 33.46875 -61.007812 32.519531 -56.863281 31.8125 -53.3125 C 31.101562 -49.757812 30.507812 -45.378906 30.03125 -40.171875 C 33.945312 -50.359375 38.332031 -58.648438 43.1875 -65.046875 C 48.039062 -71.441406 52.804688 -76 57.484375 -78.71875 C 62.171875 -81.445312 66.46875 -82.8125 70.375 -82.8125 C 78.070312 -82.8125 81.921875 -78.960938 81.921875 -71.265625 C 81.921875 -69.722656 81.390625 -65.988281 80.328125 -60.0625 C 79.378906 -55.320312 78.90625 -52.363281 78.90625 -51.1875 C 78.90625 -47.039062 80.382812 -44.96875 83.34375 -44.96875 C 86.664062 -44.96875 90.929688 -47.570312 96.140625 -52.78125 C 97.679688 -54.320312 99.28125 -55.09375 100.9375 -55.09375 C 102.476562 -55.09375 103.691406 -54.410156 104.578125 -53.046875 C 105.472656 -51.679688 105.921875 -49.875 105.921875 -47.625 C 105.921875 -43.238281 104.734375 -39.804688 102.359375 -37.328125 C 99.046875 -33.890625 95.164062 -30.953125 90.71875 -28.515625 C 86.28125 -26.085938 81.570312 -24.875 76.59375 -24.875 C 70.3125 -24.875 65.539062 -26.472656 62.28125 -29.671875 C 59.03125 -32.878906 57.40625 -37.207031 57.40625 -42.65625 C 57.40625 -44.425781 57.582031 -46.203125 57.9375 -47.984375 C 58.175781 -50.347656 58.296875 -51.945312 58.296875 -52.78125 C 58.296875 -54.675781 57.644531 -55.625 56.34375 -55.625 C 54.5625 -55.625 52.21875 -53.640625 49.3125 -49.671875 C 46.414062 -45.703125 43.546875 -40.457031 40.703125 -33.9375 C 37.859375 -27.425781 35.546875 -20.554688 33.765625 -13.328125 C 32.460938 -7.753906 30.953125 -3.988281 29.234375 -2.03125 C 27.515625 -0.0820312 24.820312 0.890625 21.15625 0.890625 Z M 21.15625 0.890625 "/></g></g></g><g fill="#000000" fill-opacity="1"><g transform="translate(636.988412, 458.228969)"><g><path d="M 31.8125 -94.546875 C 26.832031 -94.546875 23.097656 -95.703125 20.609375 -98.015625 C 18.128906 -100.328125 16.890625 -103.554688 16.890625 -107.703125 C 16.890625 -111.847656 18.515625 -115.3125 21.765625 -118.09375 C 25.023438 -120.875 29.082031 -122.265625 33.9375 -122.265625 C 38.320312 -122.265625 41.875 -121.195312 44.59375 -119.0625 C 47.320312 -116.9375 48.6875 -113.921875 48.6875 -110.015625 C 48.6875 -105.273438 47.144531 -101.507812 44.0625 -98.71875 C 40.988281 -95.9375 36.90625 -94.546875 31.8125 -94.546875 Z M 30.390625 0.890625 C 22.691406 0.890625 17.09375 -1.832031 13.59375 -7.28125 C 10.101562 -12.738281 8.359375 -19.96875 8.359375 -28.96875 C 8.359375 -34.300781 9.035156 -41.144531 10.390625 -49.5 C 11.753906 -57.851562 13.503906 -65.640625 15.640625 -72.859375 C 16.703125 -76.648438 18.117188 -79.253906 19.890625 -80.671875 C 21.671875 -82.097656 24.519531 -82.8125 28.4375 -82.8125 C 34.476562 -82.8125 37.5 -80.800781 37.5 -76.78125 C 37.5 -73.8125 36.375 -66.9375 34.125 -56.15625 C 31.28125 -43.125 29.859375 -34.296875 29.859375 -29.671875 C 29.859375 -26.117188 30.332031 -23.394531 31.28125 -21.5 C 32.226562 -19.601562 33.828125 -18.65625 36.078125 -18.65625 C 38.210938 -18.65625 40.878906 -20.132812 44.078125 -23.09375 C 47.273438 -26.0625 51.539062 -30.742188 56.875 -37.140625 C 58.289062 -38.796875 59.890625 -39.625 61.671875 -39.625 C 63.210938 -39.625 64.425781 -38.910156 65.3125 -37.484375 C 66.195312 -36.066406 66.640625 -34.117188 66.640625 -31.640625 C 66.640625 -26.898438 65.515625 -23.222656 63.265625 -20.609375 C 51.535156 -6.273438 40.578125 0.890625 30.390625 0.890625 Z M 30.390625 0.890625 "/></g></g></g><g fill="#000000" fill-opacity="1"><g transform="translate(673.952557, 458.228969)"><g><path d="M 30.390625 0.890625 C 23.046875 0.890625 17.179688 -1.773438 12.796875 -7.109375 C 8.410156 -12.441406 6.21875 -19.429688 6.21875 -28.078125 C 6.21875 -37.554688 8.410156 -46.53125 12.796875 -55 C 17.179688 -63.46875 23.015625 -70.28125 30.296875 -75.4375 C 37.585938 -80.59375 45.320312 -83.171875 53.5 -83.171875 C 56.101562 -83.171875 57.847656 -82.664062 58.734375 -81.65625 C 59.617188 -80.65625 60.359375 -78.847656 60.953125 -76.234375 C 63.441406 -76.710938 66.050781 -76.953125 68.78125 -76.953125 C 74.582031 -76.953125 77.484375 -74.878906 77.484375 -70.734375 C 77.484375 -68.242188 76.59375 -62.316406 74.8125 -52.953125 C 72.09375 -39.328125 70.734375 -29.851562 70.734375 -24.53125 C 70.734375 -22.75 71.175781 -21.320312 72.0625 -20.25 C 72.945312 -19.1875 74.101562 -18.65625 75.53125 -18.65625 C 77.78125 -18.65625 80.503906 -20.109375 83.703125 -23.015625 C 86.898438 -25.921875 91.222656 -30.628906 96.671875 -37.140625 C 98.097656 -38.796875 99.703125 -39.625 101.484375 -39.625 C 103.015625 -39.625 104.222656 -38.910156 105.109375 -37.484375 C 106.003906 -36.066406 106.453125 -34.117188 106.453125 -31.640625 C 106.453125 -26.898438 105.328125 -23.222656 103.078125 -20.609375 C 98.222656 -14.566406 93.066406 -9.472656 87.609375 -5.328125 C 82.160156 -1.179688 76.890625 0.890625 71.796875 0.890625 C 67.890625 0.890625 64.304688 -0.441406 61.046875 -3.109375 C 57.785156 -5.773438 55.328125 -9.421875 53.671875 -14.046875 C 47.503906 -4.085938 39.742188 0.890625 30.390625 0.890625 Z M 36.78125 -17.0625 C 39.394531 -17.0625 41.882812 -18.597656 44.25 -21.671875 C 46.625 -24.753906 48.34375 -28.84375 49.40625 -33.9375 L 55.984375 -66.640625 C 51.003906 -66.523438 46.410156 -64.660156 42.203125 -61.046875 C 38.003906 -57.429688 34.660156 -52.660156 32.171875 -46.734375 C 29.679688 -40.816406 28.4375 -34.539062 28.4375 -27.90625 C 28.4375 -24.226562 29.175781 -21.5 30.65625 -19.71875 C 32.132812 -17.945312 34.175781 -17.0625 36.78125 -17.0625 Z M 36.78125 -17.0625 "/></g></g></g><g fill="#000000" fill-opacity="1"><g transform="translate(225.15737, 582.425907)"><g><path d="M 54.71875 0.609375 C 45.132812 0.609375 36.796875 -1.140625 29.703125 -4.640625 C 22.617188 -8.148438 17.1875 -13.125 13.40625 -19.5625 C 9.625 -26.007812 7.734375 -33.5 7.734375 -42.03125 C 7.734375 -53.863281 9.96875 -64.367188 14.4375 -73.546875 C 18.90625 -82.734375 24.960938 -89.84375 32.609375 -94.875 C 40.253906 -99.90625 48.75 -102.421875 58.09375 -102.421875 C 66.789062 -102.421875 73.394531 -100.1875 77.90625 -95.71875 C 82.414062 -91.25 84.671875 -85.351562 84.671875 -78.03125 C 84.671875 -73.113281 83.800781 -69.164062 82.0625 -66.1875 C 80.332031 -63.207031 77.859375 -61.71875 74.640625 -61.71875 C 72.390625 -61.71875 70.617188 -62.238281 69.328125 -63.28125 C 68.035156 -64.332031 67.390625 -65.863281 67.390625 -67.875 C 67.390625 -68.601562 67.550781 -69.929688 67.875 -71.859375 C 68.363281 -74.273438 68.609375 -76.207031 68.609375 -77.65625 C 68.609375 -84.988281 64.703125 -88.65625 56.890625 -88.65625 C 51.578125 -88.65625 46.503906 -86.921875 41.671875 -83.453125 C 36.835938 -79.992188 32.929688 -74.898438 29.953125 -68.171875 C 26.972656 -61.453125 25.484375 -53.460938 25.484375 -44.203125 C 25.484375 -34.546875 28.179688 -27.078125 33.578125 -21.796875 C 38.972656 -16.523438 46.941406 -13.890625 57.484375 -13.890625 C 62.722656 -13.890625 68.019531 -14.550781 73.375 -15.875 C 78.726562 -17.207031 84.664062 -19.242188 91.1875 -21.984375 C 92.394531 -22.460938 93.398438 -22.703125 94.203125 -22.703125 C 95.492188 -22.703125 96.460938 -22.21875 97.109375 -21.25 C 97.753906 -20.289062 98.078125 -19.046875 98.078125 -17.515625 C 98.078125 -12.597656 95.421875 -8.972656 90.109375 -6.640625 C 84.390625 -4.148438 78.445312 -2.316406 72.28125 -1.140625 C 66.125 0.0234375 60.269531 0.609375 54.71875 0.609375 Z M 54.71875 0.609375 "/></g></g></g><g fill="#000000" fill-opacity="1"><g transform="translate(308.007239, 582.425907)"><g><path d="M 20.65625 0.609375 C 15.664062 0.609375 11.679688 -1.203125 8.703125 -4.828125 C 5.722656 -8.453125 4.234375 -13.203125 4.234375 -19.078125 C 4.234375 -25.523438 5.722656 -31.625 8.703125 -37.375 C 11.679688 -43.132812 15.644531 -47.765625 20.59375 -51.265625 C 25.539062 -54.773438 30.796875 -56.53125 36.359375 -56.53125 C 38.128906 -56.53125 39.316406 -56.1875 39.921875 -55.5 C 40.523438 -54.8125 41.023438 -53.582031 41.421875 -51.8125 C 43.117188 -52.132812 44.894531 -52.296875 46.75 -52.296875 C 50.6875 -52.296875 52.65625 -50.890625 52.65625 -48.078125 C 52.65625 -46.378906 52.050781 -42.351562 50.84375 -36 C 49 -26.738281 48.078125 -20.296875 48.078125 -16.671875 C 48.078125 -15.460938 48.375 -14.492188 48.96875 -13.765625 C 49.570312 -13.046875 50.359375 -12.6875 51.328125 -12.6875 C 52.859375 -12.6875 54.710938 -13.671875 56.890625 -15.640625 C 59.066406 -17.609375 62.003906 -20.8125 65.703125 -25.25 C 66.671875 -26.375 67.757812 -26.9375 68.96875 -26.9375 C 70.007812 -26.9375 70.832031 -26.453125 71.4375 -25.484375 C 72.039062 -24.515625 72.34375 -23.1875 72.34375 -21.5 C 72.34375 -18.28125 71.578125 -15.785156 70.046875 -14.015625 C 66.742188 -9.898438 63.238281 -6.429688 59.53125 -3.609375 C 55.832031 -0.796875 52.253906 0.609375 48.796875 0.609375 C 46.140625 0.609375 43.703125 -0.296875 41.484375 -2.109375 C 39.273438 -3.921875 37.601562 -6.398438 36.46875 -9.546875 C 32.28125 -2.773438 27.007812 0.609375 20.65625 0.609375 Z M 25 -11.59375 C 26.769531 -11.59375 28.457031 -12.640625 30.0625 -14.734375 C 31.675781 -16.828125 32.847656 -19.601562 33.578125 -23.0625 L 38.046875 -45.296875 C 34.660156 -45.210938 31.535156 -43.941406 28.671875 -41.484375 C 25.816406 -39.023438 23.546875 -35.78125 21.859375 -31.75 C 20.171875 -27.726562 19.328125 -23.46875 19.328125 -18.96875 C 19.328125 -16.46875 19.828125 -14.613281 20.828125 -13.40625 C 21.835938 -12.195312 23.226562 -11.59375 25 -11.59375 Z M 25 -11.59375 "/></g></g></g><g fill="#000000" fill-opacity="1"><g transform="translate(364.770271, 582.425907)"><g><path d="M 14.375 0.609375 C 11.3125 0.609375 9.15625 -1 7.90625 -4.21875 C 6.65625 -7.445312 6.03125 -12.601562 6.03125 -19.6875 C 6.03125 -30.15625 7.523438 -40.097656 10.515625 -49.515625 C 11.234375 -51.847656 12.414062 -53.554688 14.0625 -54.640625 C 15.71875 -55.734375 18.035156 -56.28125 21.015625 -56.28125 C 22.628906 -56.28125 23.753906 -56.078125 24.390625 -55.671875 C 25.035156 -55.273438 25.359375 -54.515625 25.359375 -53.390625 C 25.359375 -52.097656 24.753906 -49.195312 23.546875 -44.6875 C 22.742188 -41.46875 22.097656 -38.648438 21.609375 -36.234375 C 21.128906 -33.816406 20.726562 -30.835938 20.40625 -27.296875 C 23.0625 -34.222656 26.039062 -39.859375 29.34375 -44.203125 C 32.644531 -48.554688 35.882812 -51.65625 39.0625 -53.5 C 42.25 -55.351562 45.171875 -56.28125 47.828125 -56.28125 C 53.066406 -56.28125 55.6875 -53.664062 55.6875 -48.4375 C 55.6875 -45.289062 54.796875 -39.613281 53.015625 -31.40625 C 51.492188 -24.394531 50.734375 -19.765625 50.734375 -17.515625 C 50.734375 -14.296875 51.898438 -12.6875 54.234375 -12.6875 C 55.835938 -12.6875 57.75 -13.671875 59.96875 -15.640625 C 62.1875 -17.609375 65.144531 -20.8125 68.84375 -25.25 C 69.8125 -26.375 70.898438 -26.9375 72.109375 -26.9375 C 73.148438 -26.9375 73.972656 -26.453125 74.578125 -25.484375 C 75.179688 -24.515625 75.484375 -23.1875 75.484375 -21.5 C 75.484375 -18.28125 74.71875 -15.785156 73.1875 -14.015625 C 69.726562 -9.742188 66.003906 -6.238281 62.015625 -3.5 C 58.035156 -0.757812 53.507812 0.609375 48.4375 0.609375 C 44.320312 0.609375 41.21875 -0.578125 39.125 -2.953125 C 37.039062 -5.328125 36 -8.769531 36 -13.28125 C 36 -15.539062 36.5625 -19.566406 37.6875 -25.359375 C 38.726562 -30.429688 39.25 -33.9375 39.25 -35.875 C 39.25 -37.15625 38.804688 -37.796875 37.921875 -37.796875 C 36.878906 -37.796875 35.410156 -36.445312 33.515625 -33.75 C 31.617188 -31.0625 29.6875 -27.5 27.71875 -23.0625 C 25.75 -18.632812 24.160156 -13.96875 22.953125 -9.0625 C 22.066406 -5.269531 21.035156 -2.707031 19.859375 -1.375 C 18.691406 -0.0507812 16.863281 0.609375 14.375 0.609375 Z M 14.375 0.609375 "/></g></g></g><g fill="#000000" fill-opacity="1"><g transform="translate(424.673378, 582.425907)"><g><path d="M 28.859375 0.609375 C 20.972656 0.609375 14.832031 -1.625 10.4375 -6.09375 C 6.050781 -10.5625 3.859375 -16.460938 3.859375 -23.796875 C 3.859375 -30.316406 5.144531 -36.03125 7.71875 -40.9375 C 10.300781 -45.851562 13.644531 -49.640625 17.75 -52.296875 C 21.863281 -54.953125 26.171875 -56.28125 30.671875 -56.28125 C 35.109375 -56.28125 38.550781 -54.972656 41 -52.359375 C 43.457031 -49.742188 44.6875 -46.378906 44.6875 -42.265625 C 44.6875 -38.890625 43.941406 -36.03125 42.453125 -33.6875 C 40.960938 -31.351562 39.007812 -30.1875 36.59375 -30.1875 C 35.0625 -30.1875 33.832031 -30.550781 32.90625 -31.28125 C 31.988281 -32.007812 31.53125 -33.015625 31.53125 -34.296875 C 31.53125 -34.859375 31.609375 -35.503906 31.765625 -36.234375 C 31.921875 -36.960938 32.039062 -37.484375 32.125 -37.796875 C 32.53125 -39.003906 32.734375 -40.132812 32.734375 -41.1875 C 32.734375 -42.226562 32.46875 -43.03125 31.9375 -43.59375 C 31.414062 -44.164062 30.675781 -44.453125 29.71875 -44.453125 C 27.863281 -44.453125 26.128906 -43.625 24.515625 -41.96875 C 22.910156 -40.320312 21.625 -38.085938 20.65625 -35.265625 C 19.6875 -32.453125 19.203125 -29.351562 19.203125 -25.96875 C 19.203125 -16.625 23.269531 -11.953125 31.40625 -11.953125 C 34.707031 -11.953125 38.269531 -13.054688 42.09375 -15.265625 C 45.914062 -17.484375 49.679688 -20.8125 53.390625 -25.25 C 54.347656 -26.375 55.429688 -26.9375 56.640625 -26.9375 C 57.691406 -26.9375 58.519531 -26.453125 59.125 -25.484375 C 59.726562 -24.515625 60.03125 -23.1875 60.03125 -21.5 C 60.03125 -18.4375 59.265625 -15.941406 57.734375 -14.015625 C 53.953125 -9.335938 49.421875 -5.726562 44.140625 -3.1875 C 38.867188 -0.65625 33.773438 0.609375 28.859375 0.609375 Z M 28.859375 0.609375 "/></g></g></g><g fill="#000000" fill-opacity="1"><g transform="translate(469.117617, 582.425907)"><g><path d="M 18.109375 0.609375 C 14.492188 0.609375 11.535156 -1.0625 9.234375 -4.40625 C 6.941406 -7.75 5.796875 -11.914062 5.796875 -16.90625 C 5.796875 -22.945312 6.195312 -28.484375 7 -33.515625 C 7.8125 -38.546875 9.140625 -43.878906 10.984375 -49.515625 C 11.796875 -51.929688 12.925781 -53.660156 14.375 -54.703125 C 15.820312 -55.753906 18.113281 -56.28125 21.25 -56.28125 C 23.03125 -56.28125 24.257812 -56 24.9375 -55.4375 C 25.625 -54.875 25.96875 -54.03125 25.96875 -52.90625 C 25.96875 -52.257812 25.523438 -50.082031 24.640625 -46.375 C 23.835938 -43.394531 23.191406 -40.695312 22.703125 -38.28125 C 21.097656 -29.832031 20.296875 -24.195312 20.296875 -21.375 C 20.296875 -19.6875 20.492188 -18.5 20.890625 -17.8125 C 21.296875 -17.125 21.941406 -16.78125 22.828125 -16.78125 C 24.035156 -16.78125 25.546875 -17.988281 27.359375 -20.40625 C 29.171875 -22.820312 31.101562 -26.484375 33.15625 -31.390625 C 35.207031 -36.304688 37.203125 -42.347656 39.140625 -49.515625 C 39.773438 -51.929688 40.753906 -53.660156 42.078125 -54.703125 C 43.410156 -55.753906 45.410156 -56.28125 48.078125 -56.28125 C 49.921875 -56.28125 51.203125 -56.054688 51.921875 -55.609375 C 52.648438 -55.171875 53.015625 -54.347656 53.015625 -53.140625 C 53.015625 -51.128906 52.007812 -45.613281 50 -36.59375 C 47.75 -26.289062 46.625 -19.929688 46.625 -17.515625 C 46.625 -15.984375 46.941406 -14.796875 47.578125 -13.953125 C 48.222656 -13.109375 49.070312 -12.6875 50.125 -12.6875 C 51.738281 -12.6875 53.648438 -13.671875 55.859375 -15.640625 C 58.078125 -17.609375 61.035156 -20.8125 64.734375 -25.25 C 65.703125 -26.375 66.789062 -26.9375 68 -26.9375 C 69.039062 -26.9375 69.863281 -26.453125 70.46875 -25.484375 C 71.070312 -24.515625 71.375 -23.1875 71.375 -21.5 C 71.375 -18.28125 70.613281 -15.785156 69.09375 -14.015625 C 65.625 -9.742188 61.894531 -6.238281 57.90625 -3.5 C 53.925781 -0.757812 49.398438 0.609375 44.328125 0.609375 C 40.460938 0.609375 37.625 -0.878906 35.8125 -3.859375 C 34 -6.835938 33.09375 -11.023438 33.09375 -16.421875 C 31.726562 -10.953125 29.675781 -6.742188 26.9375 -3.796875 C 24.195312 -0.859375 21.253906 0.609375 18.109375 0.609375 Z M 18.109375 0.609375 "/></g></g></g><g fill="#000000" fill-opacity="1"><g transform="translate(524.91446, 582.425907)"><g><path d="M 14.375 0.609375 C 11.3125 0.609375 9.15625 -1 7.90625 -4.21875 C 6.65625 -7.445312 6.03125 -12.601562 6.03125 -19.6875 C 6.03125 -30.15625 7.523438 -40.097656 10.515625 -49.515625 C 11.234375 -51.847656 12.414062 -53.554688 14.0625 -54.640625 C 15.71875 -55.734375 18.035156 -56.28125 21.015625 -56.28125 C 22.628906 -56.28125 23.753906 -56.078125 24.390625 -55.671875 C 25.035156 -55.273438 25.359375 -54.515625 25.359375 -53.390625 C 25.359375 -52.097656 24.753906 -49.195312 23.546875 -44.6875 C 22.742188 -41.46875 22.097656 -38.648438 21.609375 -36.234375 C 21.128906 -33.816406 20.726562 -30.835938 20.40625 -27.296875 C 23.0625 -34.222656 26.039062 -39.859375 29.34375 -44.203125 C 32.644531 -48.554688 35.882812 -51.65625 39.0625 -53.5 C 42.25 -55.351562 45.171875 -56.28125 47.828125 -56.28125 C 53.066406 -56.28125 55.6875 -53.664062 55.6875 -48.4375 C 55.6875 -45.289062 54.796875 -39.613281 53.015625 -31.40625 C 51.492188 -24.394531 50.734375 -19.765625 50.734375 -17.515625 C 50.734375 -14.296875 51.898438 -12.6875 54.234375 -12.6875 C 55.835938 -12.6875 57.75 -13.671875 59.96875 -15.640625 C 62.1875 -17.609375 65.144531 -20.8125 68.84375 -25.25 C 69.8125 -26.375 70.898438 -26.9375 72.109375 -26.9375 C 73.148438 -26.9375 73.972656 -26.453125 74.578125 -25.484375 C 75.179688 -24.515625 75.484375 -23.1875 75.484375 -21.5 C 75.484375 -18.28125 74.71875 -15.785156 73.1875 -14.015625 C 69.726562 -9.742188 66.003906 -6.238281 62.015625 -3.5 C 58.035156 -0.757812 53.507812 0.609375 48.4375 0.609375 C 44.320312 0.609375 41.21875 -0.578125 39.125 -2.953125 C 37.039062 -5.328125 36 -8.769531 36 -13.28125 C 36 -15.539062 36.5625 -19.566406 37.6875 -25.359375 C 38.726562 -30.429688 39.25 -33.9375 39.25 -35.875 C 39.25 -37.15625 38.804688 -37.796875 37.921875 -37.796875 C 36.878906 -37.796875 35.410156 -36.445312 33.515625 -33.75 C 31.617188 -31.0625 29.6875 -27.5 27.71875 -23.0625 C 25.75 -18.632812 24.160156 -13.96875 22.953125 -9.0625 C 22.066406 -5.269531 21.035156 -2.707031 19.859375 -1.375 C 18.691406 -0.0507812 16.863281 0.609375 14.375 0.609375 Z M 14.375 0.609375 "/></g></g></g></svg>