<svg xmlns="http://www.w3.org/2000/svg" xmlns:xlink="http://www.w3.org/1999/xlink" width="1080" zoomAndPan="magnify" viewBox="0 0 810 809.999993" height="1080" preserveAspectRatio="xMidYMid meet" version="1.0"><defs><g/><clipPath id="b04788d97f"><path d="M 659.398438 69.636719 L 779.285156 69.636719 L 779.285156 241.191406 L 659.398438 241.191406 Z M 659.398438 69.636719 " clip-rule="nonzero"/></clipPath><clipPath id="e1bc05e53f"><path d="M 29.824219 69.636719 L 149.707031 69.636719 L 149.707031 241.191406 L 29.824219 241.191406 Z M 29.824219 69.636719 " clip-rule="nonzero"/></clipPath><clipPath id="1023e951d8"><path d="M 623.351562 330.253906 L 660.851562 330.253906 L 660.851562 363.253906 L 623.351562 363.253906 Z M 623.351562 330.253906 " clip-rule="nonzero"/></clipPath><clipPath id="9f690b5e75"><path d="M 232 528.917969 L 578 528.917969 L 578 534.917969 L 232 534.917969 Z M 232 528.917969 " clip-rule="nonzero"/></clipPath><clipPath id="11d989299a"><path d="M 232 531.007812 L 578 531.007812 L 578 537.007812 L 232 537.007812 Z M 232 531.007812 " clip-rule="nonzero"/></clipPath><clipPath id="f8a1a28770"><path d="M 232 531.976562 L 578 531.976562 L 578 537.976562 L 232 537.976562 Z M 232 531.976562 " clip-rule="nonzero"/></clipPath></defs><path fill="#ffe63e" d="M 391.882812 186.550781 L 431.933594 186.550781 L 473.617188 187.367188 L 503.449219 188.59375 L 533.28125 190.226562 L 560.253906 192.269531 L 590.085938 195.132812 L 610.519531 197.582031 L 630.542969 200.445312 L 651.386719 204.121094 L 668.957031 207.800781 L 681.21875 211.070312 L 691.027344 214.339844 L 698.382812 217.609375 L 701.242188 219.652344 L 702.875 222.101562 L 703.285156 223.328125 L 703.285156 229.867188 L 702.058594 231.910156 L 698.789062 233.546875 L 691.027344 234.363281 L 677.539062 235.179688 L 663.644531 235.589844 L 635.039062 235.996094 L 575.78125 236.40625 L 432.75 237.222656 L 176.109375 238.039062 L 114.8125 238.039062 L 111.949219 236.816406 L 109.90625 234.773438 L 108.679688 232.320312 L 108.679688 227.824219 L 110.722656 224.554688 L 113.992188 221.695312 L 119.714844 218.425781 L 130.339844 213.519531 L 143.417969 209.433594 L 154.453125 206.574219 L 172.839844 202.894531 L 192.867188 199.625 L 217.792969 196.355469 L 236.59375 194.3125 L 263.5625 191.863281 L 293.804688 189.820312 L 317.507812 188.59375 L 349.792969 187.367188 L 366.546875 186.957031 Z M 391.882812 186.550781 " fill-opacity="1" fill-rule="nonzero"/><path fill="#ffe63e" d="M 742.515625 252.34375 L 764.175781 252.34375 L 769.078125 253.160156 L 772.757812 254.796875 L 776.4375 257.25 L 778.886719 260.515625 L 780.113281 263.785156 L 780.113281 267.054688 L 778.480469 271.550781 L 774.800781 275.230469 L 769.898438 277.679688 L 766.628906 278.5 L 762.132812 278.90625 L 44.929688 282.585938 L 39.207031 281.769531 L 35.121094 279.722656 L 31.851562 276.457031 L 30.21875 272.777344 L 29.808594 271.144531 L 29.808594 267.464844 L 31.445312 262.96875 L 33.488281 260.109375 L 37.164062 257.65625 L 40.84375 256.429688 L 43.703125 256.023438 L 105.003906 255.613281 Z M 742.515625 252.34375 " fill-opacity="1" fill-rule="nonzero"/><path fill="#ffe63e" d="M 347.75 124.023438 L 450.324219 124.023438 L 451.140625 124.433594 L 454.816406 137.511719 L 459.3125 155.492188 L 459.3125 159.167969 L 458.085938 159.988281 L 395.5625 159.988281 L 341.617188 159.578125 L 341.210938 159.167969 L 341.210938 155.082031 L 346.113281 127.292969 L 346.929688 124.433594 Z M 347.75 124.023438 " fill-opacity="1" fill-rule="nonzero"/><path fill="#ffe63e" d="M 742.515625 252.34375 L 764.175781 252.34375 L 769.078125 253.160156 L 772.757812 254.796875 L 776.4375 257.25 L 778.886719 260.515625 L 780.113281 263.785156 L 780.113281 267.054688 L 778.480469 271.550781 L 774.800781 275.230469 L 769.898438 277.679688 L 766.628906 278.5 L 762.132812 278.90625 L 44.929688 282.585938 L 39.207031 281.769531 L 35.121094 279.722656 L 31.851562 276.457031 L 30.21875 272.777344 L 29.808594 271.144531 L 29.808594 267.464844 L 31.445312 262.96875 L 33.488281 260.109375 L 37.164062 257.65625 L 40.84375 256.429688 L 43.703125 256.023438 L 105.003906 255.613281 Z M 715.546875 253.160156 L 483.425781 254.386719 L 80.074219 256.429688 L 42.476562 256.839844 L 38.800781 257.65625 L 34.714844 260.109375 L 32.261719 262.96875 L 30.625 267.464844 L 30.625 271.144531 L 32.261719 275.636719 L 34.714844 278.5 L 37.164062 280.132812 L 42.476562 281.769531 L 89.066406 281.769531 L 308.925781 280.542969 L 764.585938 278.089844 L 769.078125 277.273438 L 774.800781 274.410156 L 777.660156 271.550781 L 779.296875 267.875 L 779.296875 262.96875 L 777.253906 258.882812 L 774.394531 256.429688 L 770.304688 254.386719 L 765.402344 253.160156 Z M 715.546875 253.160156 " fill-opacity="1" fill-rule="nonzero"/><path fill="#ffe63e" d="M 346.929688 124.433594 L 347.75 124.839844 L 347.339844 130.5625 L 346.929688 133.832031 L 346.523438 134.242188 L 345.296875 143.230469 L 344.886719 143.640625 L 344.070312 150.585938 L 343.253906 150.585938 L 342.84375 157.941406 L 342.027344 157.941406 L 342.027344 158.761719 L 343.253906 158.351562 L 458.496094 158.351562 L 457.679688 156.308594 L 455.636719 147.316406 L 454.820312 144.867188 L 454 140.371094 L 453.183594 137.917969 L 451.550781 131.378906 L 450.730469 128.929688 L 450.324219 124.433594 L 451.140625 124.433594 L 454.820312 137.511719 L 459.3125 155.492188 L 459.3125 159.167969 L 458.085938 159.988281 L 395.5625 159.988281 L 341.617188 159.578125 L 341.210938 159.167969 L 341.210938 155.082031 L 346.113281 127.292969 Z M 346.929688 124.433594 " fill-opacity="1" fill-rule="nonzero"/><path fill="#ffe63e" d="M 347.75 124.023438 L 450.324219 124.023438 L 449.914062 124.839844 L 446.238281 125.25 L 445.417969 125.660156 L 349.382812 125.660156 Z M 347.75 124.023438 " fill-opacity="1" fill-rule="nonzero"/><g clip-path="url(#b04788d97f)"><path fill="#d9d9d9" d="M 703.753906 69.636719 C 695.460938 77.707031 684.222656 93.847656 690.324219 109.433594 C 694.085938 119.046875 705.28125 120.539062 717.765625 128.9375 C 723.125 132.542969 719.492188 139.800781 707.382812 142.601562 C 698.121094 144.742188 688.886719 147.035156 679.945312 150.25 C 666.808594 154.972656 659.398438 162.925781 659.398438 172.957031 C 659.398438 182.707031 665.5625 189.753906 677.480469 192.894531 C 685.886719 195.109375 691.855469 195.105469 714.003906 197.753906 C 726.257812 199.214844 742.050781 202.582031 747.796875 213.503906 C 754.898438 227.019531 741.03125 239.683594 731.140625 237.636719 C 739.75 242.527344 759.972656 243.652344 771.308594 232.625 C 778.410156 225.714844 780.886719 215.582031 778.265625 206.03125 C 775.410156 195.613281 763.988281 185.882812 753.707031 182.570312 C 716.511719 170.589844 682.242188 186.191406 681.140625 171.558594 C 680.3125 160.589844 698.285156 161.351562 725.984375 155.414062 C 738.382812 152.757812 751.617188 145.515625 747.296875 133.257812 C 739.710938 111.722656 679.738281 119.882812 703.753906 69.636719 " fill-opacity="1" fill-rule="nonzero"/></g><g clip-path="url(#e1bc05e53f)"><path fill="#d9d9d9" d="M 105.355469 69.636719 C 113.648438 77.707031 124.882812 93.847656 118.785156 109.433594 C 115.023438 119.046875 103.824219 120.539062 91.34375 128.9375 C 85.980469 132.542969 89.613281 139.800781 101.726562 142.601562 C 110.984375 144.742188 120.21875 147.035156 129.164062 150.25 C 142.300781 154.972656 149.710938 162.925781 149.710938 172.957031 C 149.710938 182.707031 143.542969 189.753906 131.625 192.894531 C 123.222656 195.109375 117.253906 195.105469 95.105469 197.753906 C 82.847656 199.214844 67.054688 202.582031 61.3125 213.503906 C 54.207031 227.019531 68.078125 239.683594 77.96875 237.636719 C 69.359375 242.527344 49.132812 243.652344 37.796875 232.625 C 30.699219 225.714844 28.222656 215.582031 30.839844 206.03125 C 33.699219 195.613281 45.121094 185.882812 55.402344 182.570312 C 92.597656 170.589844 126.863281 186.191406 127.96875 171.558594 C 128.796875 160.589844 110.824219 161.351562 83.125 155.414062 C 70.726562 152.757812 57.492188 145.515625 61.8125 133.257812 C 69.394531 111.722656 129.371094 119.882812 105.355469 69.636719 " fill-opacity="1" fill-rule="nonzero"/></g><path fill="#ffe63e" d="M 69.003906 737.972656 L 47.316406 737.972656 L 42.402344 737.160156 L 38.71875 735.519531 L 35.035156 733.066406 L 32.582031 729.789062 L 31.355469 726.515625 L 31.355469 723.242188 L 32.988281 718.738281 L 36.671875 715.058594 L 41.585938 712.601562 L 44.855469 711.78125 L 49.359375 711.375 L 767.578125 707.691406 L 773.308594 708.511719 L 777.402344 710.554688 L 780.671875 713.828125 L 782.3125 717.511719 L 782.71875 719.152344 L 782.71875 722.832031 L 781.085938 727.335938 L 779.039062 730.199219 L 775.355469 732.65625 L 771.671875 733.882812 L 768.804688 734.292969 L 707.421875 734.699219 Z M 69.003906 737.972656 " fill-opacity="1" fill-rule="nonzero"/><path fill="#ffe63e" d="M 69.003906 737.972656 L 47.316406 737.972656 L 42.402344 737.160156 L 38.71875 735.519531 L 35.035156 733.066406 L 32.582031 729.789062 L 31.355469 726.515625 L 31.355469 723.242188 L 32.988281 718.738281 L 36.671875 715.058594 L 41.585938 712.601562 L 44.855469 711.78125 L 49.359375 711.375 L 767.578125 707.691406 L 773.308594 708.511719 L 777.402344 710.554688 L 780.671875 713.828125 L 782.3125 717.511719 L 782.71875 719.152344 L 782.71875 722.832031 L 781.085938 727.335938 L 779.039062 730.199219 L 775.355469 732.65625 L 771.671875 733.882812 L 768.804688 734.292969 L 707.421875 734.699219 Z M 96.011719 737.160156 L 328.460938 735.925781 L 732.382812 733.882812 L 770.035156 733.472656 L 773.714844 732.65625 L 777.808594 730.199219 L 780.265625 727.335938 L 781.902344 722.832031 L 781.902344 719.152344 L 780.265625 714.648438 L 777.808594 711.78125 L 775.355469 710.148438 L 770.035156 708.511719 L 723.378906 708.511719 L 503.210938 709.738281 L 46.902344 712.195312 L 42.402344 713.007812 L 36.671875 715.875 L 33.808594 718.738281 L 32.167969 722.425781 L 32.167969 727.335938 L 34.214844 731.429688 L 37.082031 733.882812 L 41.171875 735.925781 L 46.085938 737.160156 Z M 96.011719 737.160156 " fill-opacity="1" fill-rule="nonzero"/><g fill="#ffe63e" fill-opacity="1"><g transform="translate(1.591797, 506.777769)"><g><path d="M 107.640625 -103.265625 C 107.640625 -89.472656 101.671875 -78.992188 89.734375 -71.828125 C 96.234375 -69.441406 101.671875 -65.328125 106.046875 -59.484375 C 110.421875 -53.648438 112.609375 -45.394531 112.609375 -34.71875 C 112.609375 -24.039062 108.660156 -15.582031 100.765625 -9.34375 C 92.878906 -3.113281 81.578125 0 66.859375 0 L 19.890625 0 C 17.640625 0 15.785156 -0.757812 14.328125 -2.28125 C 12.867188 -3.8125 12.140625 -5.835938 12.140625 -8.359375 L 12.140625 -135.703125 C 12.140625 -137.160156 12.367188 -138.117188 12.828125 -138.578125 C 13.296875 -139.046875 14.257812 -139.28125 15.71875 -139.28125 L 61.078125 -139.28125 C 92.117188 -139.28125 107.640625 -127.273438 107.640625 -103.265625 Z M 50.34375 -107.046875 L 50.34375 -80.984375 L 51.328125 -80.984375 C 64.066406 -80.984375 70.4375 -85.226562 70.4375 -93.71875 C 70.4375 -98.351562 69.207031 -101.734375 66.75 -103.859375 C 64.300781 -105.984375 60.222656 -107.046875 54.515625 -107.046875 Z M 50.34375 -57.5 L 50.34375 -31.640625 L 53.921875 -31.640625 C 59.617188 -31.640625 63.796875 -32.695312 66.453125 -34.8125 C 69.109375 -36.9375 70.4375 -40.320312 70.4375 -44.96875 C 70.4375 -49.613281 69.207031 -52.863281 66.75 -54.71875 C 64.300781 -56.570312 60.222656 -57.5 54.515625 -57.5 Z M 50.34375 -57.5 "/></g></g></g><g fill="#ffe63e" fill-opacity="1"><g transform="translate(122.961504, 506.777769)"><g><path d="M 74.609375 -83.96875 C 77.128906 -83.96875 78.390625 -79.320312 78.390625 -70.03125 C 78.390625 -67.25 78.09375 -63.96875 77.5 -60.1875 C 76.90625 -56.40625 75.8125 -54.515625 74.21875 -54.515625 L 48.953125 -54.515625 L 48.953125 -34.625 L 85.5625 -34.625 C 87.8125 -34.625 89.332031 -31.703125 90.125 -25.859375 C 90.53125 -23.335938 90.734375 -20.648438 90.734375 -17.796875 C 90.734375 -14.953125 90.332031 -11.273438 89.53125 -6.765625 C 88.738281 -2.253906 87.414062 0 85.5625 0 L 17.515625 0 C 12.472656 0 9.953125 -2.054688 9.953125 -6.171875 L 9.953125 -134.109375 C 9.953125 -137.554688 11.476562 -139.28125 14.53125 -139.28125 L 85.75 -139.28125 C 88.539062 -139.28125 89.9375 -133.410156 89.9375 -121.671875 C 89.9375 -109.929688 88.539062 -104.0625 85.75 -104.0625 L 48.953125 -104.0625 L 48.953125 -83.96875 Z M 74.609375 -83.96875 "/></g></g></g><g fill="#ffe63e" fill-opacity="1"><g transform="translate(224.235592, 506.777769)"><g><path d="M 118.984375 -4.375 C 118.984375 -1.59375 112.75 -0.203125 100.28125 -0.203125 C 87.8125 -0.203125 81.046875 -1.195312 79.984375 -3.1875 L 46.75 -65.265625 L 46.75 -3.375 C 46.75 -0.988281 40.613281 0.203125 28.34375 0.203125 C 16.082031 0.203125 9.953125 -0.988281 9.953125 -3.375 L 9.953125 -136.5 C 9.953125 -138.488281 15.191406 -139.484375 25.671875 -139.484375 C 29.773438 -139.484375 34.578125 -139.113281 40.078125 -138.375 C 45.585938 -137.644531 48.941406 -136.285156 50.140625 -134.296875 L 81.96875 -73.015625 L 81.96875 -135.5 C 81.96875 -138.019531 88.132812 -139.28125 100.46875 -139.28125 C 112.8125 -139.28125 118.984375 -138.019531 118.984375 -135.5 Z M 118.984375 -4.375 "/></g></g></g><g fill="#ffe63e" fill-opacity="1"><g transform="translate(356.349479, 506.777769)"><g><path d="M 9.953125 -9.15625 L 9.953125 -128.53125 C 9.953125 -131.851562 10.78125 -134.472656 12.4375 -136.390625 C 14.09375 -138.316406 16.25 -139.28125 18.90625 -139.28125 L 52.125 -139.28125 C 73.21875 -139.28125 89.234375 -133.972656 100.171875 -123.359375 C 111.117188 -112.742188 116.59375 -96.03125 116.59375 -73.21875 C 116.59375 -24.40625 95.769531 0 54.125 0 L 20.09375 0 C 13.332031 0 9.953125 -3.050781 9.953125 -9.15625 Z M 48.15625 -101.46875 L 48.15625 -41.984375 C 48.15625 -39.191406 48.351562 -37.429688 48.75 -36.703125 C 49.144531 -35.972656 50.335938 -35.609375 52.328125 -35.609375 C 59.617188 -35.609375 65.15625 -38.328125 68.9375 -43.765625 C 72.71875 -49.210938 74.609375 -58.269531 74.609375 -70.9375 C 74.609375 -83.601562 72.648438 -91.859375 68.734375 -95.703125 C 64.828125 -99.546875 58.628906 -101.46875 50.140625 -101.46875 Z M 48.15625 -101.46875 "/></g></g></g><g fill="#ffe63e" fill-opacity="1"><g transform="translate(482.096431, 506.777769)"><g><path d="M 23.078125 -34.21875 L 23.078125 -105.0625 L 8.953125 -105.0625 C 6.703125 -105.0625 5.109375 -107.910156 4.171875 -113.609375 C 3.773438 -116.398438 3.578125 -119.253906 3.578125 -122.171875 C 3.578125 -125.085938 3.773438 -127.9375 4.171875 -130.71875 C 5.109375 -136.425781 6.703125 -139.28125 8.953125 -139.28125 L 75.8125 -139.28125 C 78.0625 -139.28125 79.585938 -136.425781 80.390625 -130.71875 C 80.910156 -127.9375 81.171875 -125.085938 81.171875 -122.171875 C 81.171875 -119.253906 80.910156 -116.398438 80.390625 -113.609375 C 79.585938 -107.910156 78.0625 -105.0625 75.8125 -105.0625 L 62.46875 -105.0625 L 62.46875 -34.21875 L 76.40625 -34.21875 C 78.65625 -34.21875 80.242188 -31.367188 81.171875 -25.671875 C 81.703125 -22.878906 81.96875 -20.023438 81.96875 -17.109375 C 81.96875 -14.191406 81.703125 -11.34375 81.171875 -8.5625 C 80.242188 -2.851562 78.65625 0 76.40625 0 L 9.34375 0 C 7.09375 0 5.570312 -2.851562 4.78125 -8.5625 C 4.25 -11.34375 3.984375 -14.191406 3.984375 -17.109375 C 3.984375 -20.023438 4.25 -22.878906 4.78125 -25.671875 C 5.570312 -31.367188 7.09375 -34.21875 9.34375 -34.21875 Z M 23.078125 -34.21875 "/></g></g></g><g fill="#ffe63e" fill-opacity="1"><g transform="translate(578.23615, 508.452009)"><g><path d="M 67.09375 -1.46875 C 67.09375 0.488281 60.257812 1.46875 46.59375 1.46875 C 30.332031 0.8125 22.203125 -0.242188 22.203125 -1.703125 L 22.203125 -88.0625 L 9.765625 -88.0625 C 6.503906 -88.0625 4.875 -93.675781 4.875 -104.90625 C 4.875 -107.832031 5.160156 -111.410156 5.734375 -115.640625 C 6.304688 -119.867188 7.484375 -121.984375 9.265625 -121.984375 L 22.203125 -121.984375 L 22.203125 -143.4375 C 22.203125 -146.695312 29.070312 -148.328125 42.8125 -148.328125 C 56.550781 -148.328125 63.421875 -147.023438 63.421875 -144.421875 L 63.421875 -128.8125 L 63.671875 -121.984375 L 84.40625 -121.984375 C 87.175781 -121.984375 88.5625 -116.289062 88.5625 -104.90625 C 88.5625 -93.519531 87.175781 -87.828125 84.40625 -87.828125 L 67.09375 -87.828125 Z M 67.09375 -1.46875 "/></g></g></g><g fill="#ffe63e" fill-opacity="1"><g transform="translate(669.580698, 506.74109)"><g><path d="M 103.28125 0.390625 C 91.757812 0.390625 85.535156 -1.457031 84.609375 -5.15625 L 78.046875 -30.78125 L 46.46875 -30.78125 L 40.71875 -6.15625 C 39.914062 -2.050781 33.554688 0 21.640625 0 C 15.285156 0 10.585938 -0.363281 7.546875 -1.09375 C 4.503906 -1.820312 2.984375 -2.382812 2.984375 -2.78125 L 38.140625 -137.234375 C 38.140625 -138.296875 47.207031 -138.828125 65.34375 -138.828125 C 83.476562 -138.828125 92.546875 -138.296875 92.546875 -137.234375 L 126.90625 -2.578125 C 126.90625 -1.648438 123.859375 -0.921875 117.765625 -0.390625 C 111.679688 0.128906 106.851562 0.390625 103.28125 0.390625 Z M 51.4375 -56.015625 L 72.296875 -56.015625 L 63.359375 -97.125 L 62.171875 -97.125 Z M 51.4375 -56.015625 "/></g></g></g><g clip-path="url(#1023e951d8)"><path fill="#000000" d="M 658.328125 357.523438 C 657.988281 358.164062 655.328125 359.554688 654.132812 360.355469 C 652.917969 361.167969 650.484375 362.003906 649.09375 362.261719 C 645.878906 362.855469 643.070312 362.453125 640.179688 361.367188 C 639.566406 361.136719 639.757812 360.972656 639 360.746094 C 637.734375 360.367188 636.867188 359.585938 635.875 358.683594 C 634.203125 357.160156 632.125 353.375 631.089844 351.304688 C 630.871094 350.867188 630.691406 350.53125 630.523438 350.078125 C 630.019531 348.734375 628.832031 346.890625 627.664062 346.113281 C 626.707031 345.480469 625.6875 345.1875 625.363281 345.027344 C 625.558594 344.378906 625.925781 344.375 626.539062 344.101562 C 627.871094 343.503906 630.355469 343.359375 631.558594 344.007812 C 632.476562 344.5 633.1875 345.054688 633.789062 345.835938 C 634.113281 346.261719 634.515625 346.589844 634.855469 346.878906 C 635.546875 347.46875 635.082031 347.710938 635.894531 347.765625 C 636.242188 347.183594 636.007812 347.230469 635.984375 346.773438 C 635.96875 346.457031 636.089844 346.089844 636.15625 345.785156 C 636.308594 345.070312 636.460938 344.496094 636.660156 343.847656 L 637.851562 341.277344 C 638.066406 341 640.375 338.972656 641.171875 338.628906 C 641.820312 338.34375 642.222656 338.183594 642.902344 337.910156 C 643.472656 337.679688 644.0625 337.527344 644.652344 337.230469 L 648.265625 336.015625 C 650.289062 335.640625 651.933594 335.007812 653.828125 334.242188 L 658.9375 331.976562 C 658.683594 333.300781 657.546875 334.152344 656.75 334.894531 C 654.335938 337.15625 654.0625 335.796875 653.933594 336.914062 C 653.984375 336.949219 657.257812 337.5 655.816406 339.316406 C 654.964844 340.386719 651.199219 340.855469 653.574219 341.300781 C 654.664062 341.503906 654.882812 342.644531 654.871094 342.757812 C 654.800781 343.464844 652.835938 345.039062 651.039062 345.101562 C 650.777344 346.378906 651.523438 345.371094 652.296875 346.328125 C 652.972656 347.992188 651.152344 349.46875 649.351562 348.953125 C 649.011719 349.464844 649.351562 349.050781 649.003906 349.304688 C 649.65625 350.402344 649.941406 350.492188 648.578125 351.386719 C 646.488281 352.761719 647.195312 352.027344 645.464844 352.488281 C 643.90625 352.902344 644.21875 353.316406 644.183594 353.382812 C 643.90625 353.777344 645.941406 355.535156 646.265625 355.773438 C 648.488281 357.40625 649.226562 357.398438 651.609375 357.691406 C 655.066406 358.113281 655.023438 357.800781 658.328125 357.523438 Z M 635.328125 346.105469 C 634.90625 346.027344 634.90625 345.890625 634.664062 345.605469 C 634.453125 345.355469 634.378906 345.265625 634.128906 345.011719 C 633.097656 343.96875 631.449219 342.871094 629.789062 342.84375 C 628.324219 342.820312 627.3125 342.832031 626.085938 343.503906 C 625.589844 343.773438 623.371094 344.992188 624.0625 345.675781 C 624.691406 345.949219 625.246094 345.757812 625.867188 345.960938 C 627.617188 346.542969 629.171875 348.335938 629.78125 349.871094 C 629.964844 350.339844 630.097656 350.699219 630.355469 351.210938 C 630.574219 351.652344 630.726562 352.042969 630.992188 352.53125 L 633.902344 357.410156 C 634.09375 357.683594 634.160156 357.726562 634.332031 357.960938 L 635.507812 359.222656 C 635.636719 359.328125 635.527344 359.242188 635.78125 359.433594 C 636.226562 359.769531 636.351562 359.964844 636.828125 360.324219 C 638.308594 361.445312 640.53125 362.195312 642.324219 362.785156 C 643.445312 363.148438 644.398438 363.125 645.46875 363.179688 C 646.589844 363.230469 647.621094 363.292969 648.503906 363.019531 C 649.511719 362.703125 650.441406 362.5 651.550781 362.144531 C 654.09375 361.324219 654.414062 360.671875 655.34375 360.097656 C 656.214844 359.5625 658.042969 358.757812 658.960938 357.871094 C 660.148438 356.722656 660.867188 356.910156 661.035156 356.0625 C 660.59375 356.171875 660.367188 356.324219 659.960938 356.441406 C 659.585938 356.546875 659.261719 356.53125 658.851562 356.617188 C 656.222656 357.179688 654.316406 357.3125 651.660156 357.003906 C 650.265625 356.84375 648.972656 356.796875 647.421875 355.894531 C 646.632812 355.433594 645.121094 354 644.921875 353.09375 C 646.484375 353.09375 647.332031 352.976562 648.566406 352.351562 C 651.046875 351.101562 650.023438 350.921875 650.554688 349.652344 C 651.648438 349.566406 652.421875 348.898438 652.816406 348.160156 C 653.507812 346.863281 653.125 346.324219 652.582031 345.363281 C 653.707031 344.957031 655.78125 343.683594 655.425781 342.144531 C 655.261719 341.421875 655 341.554688 654.726562 340.808594 C 656.359375 339.585938 656.207031 340.226562 656.636719 338.984375 C 657.277344 337.140625 656.230469 337.675781 655.746094 336.351562 C 657.769531 335.742188 659.496094 332.769531 660.417969 330.90625 C 660.304688 330.71875 660.199219 330.503906 660.074219 330.257812 C 659.441406 330.347656 659.660156 330.367188 659.292969 330.773438 C 658.402344 331.761719 652.773438 333.984375 651.417969 334.402344 L 648.414062 335.304688 C 645.65625 336.027344 644.253906 336.582031 641.695312 337.503906 C 641.304688 337.644531 640.199219 338.191406 639.964844 338.382812 C 639.5625 338.722656 639.125 339.082031 638.683594 339.535156 C 637.015625 341.246094 638.53125 338.855469 636.410156 342.460938 C 635.890625 343.347656 635.410156 345.105469 635.328125 346.105469 " fill-opacity="1" fill-rule="evenodd"/></g><path fill="#ffe63e" d="M 658.328125 357.523438 C 657.988281 358.164062 655.328125 359.554688 654.132812 360.355469 C 652.917969 361.167969 650.484375 362.003906 649.09375 362.261719 C 645.878906 362.855469 643.070312 362.453125 640.179688 361.367188 C 639.566406 361.136719 639.757812 360.972656 639 360.746094 C 637.734375 360.367188 636.867188 359.585938 635.875 358.683594 C 634.203125 357.160156 632.125 353.375 631.089844 351.304688 C 630.871094 350.867188 630.691406 350.53125 630.523438 350.078125 C 630.019531 348.734375 628.832031 346.890625 627.664062 346.113281 C 626.707031 345.480469 625.6875 345.1875 625.363281 345.027344 C 625.558594 344.378906 625.925781 344.375 626.539062 344.101562 C 627.871094 343.503906 630.355469 343.359375 631.558594 344.007812 C 632.476562 344.5 633.1875 345.054688 633.789062 345.835938 C 634.113281 346.261719 634.515625 346.589844 634.855469 346.878906 C 635.546875 347.46875 635.082031 347.710938 635.894531 347.765625 C 636.242188 347.183594 636.007812 347.230469 635.984375 346.773438 C 635.96875 346.457031 636.089844 346.089844 636.15625 345.785156 C 636.308594 345.070312 636.460938 344.496094 636.660156 343.847656 L 637.851562 341.277344 C 638.066406 341 640.375 338.972656 641.171875 338.628906 C 641.820312 338.34375 642.222656 338.183594 642.902344 337.910156 C 643.472656 337.679688 644.0625 337.527344 644.652344 337.230469 L 648.265625 336.015625 C 650.289062 335.640625 651.933594 335.007812 653.828125 334.242188 L 658.9375 331.976562 C 658.683594 333.300781 657.546875 334.152344 656.75 334.894531 C 654.335938 337.15625 654.0625 335.796875 653.933594 336.914062 C 653.984375 336.949219 657.257812 337.5 655.816406 339.316406 C 654.964844 340.386719 651.199219 340.855469 653.574219 341.300781 C 654.664062 341.503906 654.882812 342.644531 654.871094 342.757812 C 654.800781 343.464844 652.835938 345.039062 651.039062 345.101562 C 650.777344 346.378906 651.523438 345.371094 652.296875 346.328125 C 652.972656 347.992188 651.152344 349.46875 649.351562 348.953125 C 649.011719 349.464844 649.351562 349.050781 649.003906 349.304688 C 649.65625 350.402344 649.941406 350.492188 648.578125 351.386719 C 646.488281 352.761719 647.195312 352.027344 645.464844 352.488281 C 643.90625 352.902344 644.21875 353.316406 644.183594 353.382812 C 643.90625 353.777344 645.941406 355.535156 646.265625 355.773438 C 648.488281 357.40625 649.226562 357.398438 651.609375 357.691406 C 655.066406 358.113281 655.023438 357.800781 658.328125 357.523438 " fill-opacity="1" fill-rule="evenodd"/><g fill="#ffe63e" fill-opacity="1"><g transform="translate(88.872152, 635.32835)"><g><path d="M 32.140625 0 L 28.09375 0 C 27.425781 0 26.875 -0.207031 26.4375 -0.625 C 26.007812 -1.039062 25.796875 -1.582031 25.796875 -2.25 L 25.796875 -65.421875 L 4.390625 -65.421875 C 2.890625 -65.421875 2.140625 -66.21875 2.140625 -67.8125 L 2.140625 -71.90625 C 2.140625 -72.570312 2.347656 -73.101562 2.765625 -73.5 C 3.179688 -73.894531 3.722656 -74.09375 4.390625 -74.09375 L 55.734375 -74.09375 C 56.367188 -74.09375 56.910156 -73.898438 57.359375 -73.515625 C 57.804688 -73.140625 58.0625 -72.601562 58.125 -71.90625 L 58.125 -67.8125 C 58.125 -67.113281 57.914062 -66.539062 57.5 -66.09375 C 57.09375 -65.644531 56.503906 -65.421875 55.734375 -65.421875 L 34.4375 -65.421875 L 34.4375 -2.25 C 34.4375 -1.582031 34.234375 -1.039062 33.828125 -0.625 C 33.429688 -0.207031 32.867188 0 32.140625 0 Z M 32.140625 0 "/></g></g></g><g fill="#ffe63e" fill-opacity="1"><g transform="translate(156.283329, 635.32835)"><g><path d="M 8.828125 0 L 4.546875 0 C 3.109375 0 2.390625 -0.53125 2.390625 -1.59375 C 2.390625 -1.664062 2.394531 -1.785156 2.40625 -1.953125 C 2.425781 -2.117188 2.457031 -2.316406 2.5 -2.546875 L 19.3125 -43.015625 L 31.53125 -72.25 C 31.695312 -72.78125 31.953125 -73.21875 32.296875 -73.5625 C 32.648438 -73.914062 33.226562 -74.09375 34.03125 -74.09375 L 36.96875 -74.09375 C 37.707031 -74.09375 38.234375 -73.925781 38.546875 -73.59375 C 38.859375 -73.257812 39.148438 -72.8125 39.421875 -72.25 L 68.15625 -2.84375 C 68.15625 -2.738281 68.222656 -2.570312 68.359375 -2.34375 C 68.460938 -2.039062 68.515625 -1.789062 68.515625 -1.59375 C 68.515625 -0.53125 67.765625 0 66.265625 0 L 61.96875 0 C 60.675781 0 59.78125 -0.628906 59.28125 -1.890625 L 53.484375 -16.21875 L 17.21875 -16.21875 L 11.578125 -2 C 11.046875 -0.664062 10.128906 0 8.828125 0 Z M 20.8125 -24.703125 L 50 -24.703125 L 35.484375 -61.21875 Z M 20.8125 -24.703125 "/></g></g></g><g fill="#ffe63e" fill-opacity="1"><g transform="translate(234.172823, 635.32835)"><g><path d="M 11.625 0 L 7.4375 0 C 5.9375 0 5.1875 -0.734375 5.1875 -2.203125 C 5.988281 -10.078125 6.960938 -19.578125 8.109375 -30.703125 C 9.253906 -41.835938 10.59375 -54.609375 12.125 -69.015625 L 12.421875 -71.90625 C 12.421875 -72.539062 12.644531 -73.0625 13.09375 -73.46875 C 13.539062 -73.882812 14.097656 -74.09375 14.765625 -74.09375 L 21 -74.09375 C 22.03125 -74.09375 22.765625 -73.445312 23.203125 -72.15625 L 46.3125 -16.515625 L 57.9375 -44.359375 C 59.664062 -48.421875 61.484375 -52.769531 63.390625 -57.40625 C 65.304688 -62.050781 67.328125 -66.96875 69.453125 -72.15625 C 69.816406 -73.445312 70.535156 -74.09375 71.609375 -74.09375 L 78.046875 -74.09375 C 78.703125 -74.09375 79.226562 -73.882812 79.625 -73.46875 C 80.03125 -73.0625 80.234375 -72.539062 80.234375 -71.90625 L 87.515625 -2.203125 C 87.515625 -0.734375 86.769531 0 85.28125 0 L 81.078125 0 C 79.585938 0 78.84375 -0.734375 78.84375 -2.203125 L 73.25 -58.984375 L 50.34375 -5.046875 C 49.84375 -3.804688 49.144531 -3.1875 48.25 -3.1875 L 44.3125 -3.1875 C 43.476562 -3.1875 42.8125 -3.804688 42.3125 -5.046875 L 19.40625 -58.984375 L 13.875 -2.203125 C 13.875 -0.734375 13.125 0 11.625 0 Z M 11.625 0 "/></g></g></g><g fill="#ffe63e" fill-opacity="1"><g transform="translate(333.018965, 635.32835)"><g><path d="M 8.828125 0 L 4.546875 0 C 3.109375 0 2.390625 -0.53125 2.390625 -1.59375 C 2.390625 -1.664062 2.394531 -1.785156 2.40625 -1.953125 C 2.425781 -2.117188 2.457031 -2.316406 2.5 -2.546875 L 19.3125 -43.015625 L 31.53125 -72.25 C 31.695312 -72.78125 31.953125 -73.21875 32.296875 -73.5625 C 32.648438 -73.914062 33.226562 -74.09375 34.03125 -74.09375 L 36.96875 -74.09375 C 37.707031 -74.09375 38.234375 -73.925781 38.546875 -73.59375 C 38.859375 -73.257812 39.148438 -72.8125 39.421875 -72.25 L 68.15625 -2.84375 C 68.15625 -2.738281 68.222656 -2.570312 68.359375 -2.34375 C 68.460938 -2.039062 68.515625 -1.789062 68.515625 -1.59375 C 68.515625 -0.53125 67.765625 0 66.265625 0 L 61.96875 0 C 60.675781 0 59.78125 -0.628906 59.28125 -1.890625 L 53.484375 -16.21875 L 17.21875 -16.21875 L 11.578125 -2 C 11.046875 -0.664062 10.128906 0 8.828125 0 Z M 20.8125 -24.703125 L 50 -24.703125 L 35.484375 -61.21875 Z M 20.8125 -24.703125 "/></g></g></g><g fill="#ffe63e" fill-opacity="1"><g transform="translate(410.908464, 635.32835)"><g><path d="M 52.6875 0 L 10.28125 0 C 8.8125 0 8.078125 -0.734375 8.078125 -2.203125 L 8.078125 -71.90625 C 8.078125 -72.539062 8.285156 -73.0625 8.703125 -73.46875 C 9.117188 -73.882812 9.675781 -74.09375 10.375 -74.09375 L 14.515625 -74.09375 C 15.148438 -74.09375 15.675781 -73.894531 16.09375 -73.5 C 16.507812 -73.101562 16.71875 -72.570312 16.71875 -71.90625 L 16.71875 -8.53125 L 52.6875 -8.53125 C 53.320312 -8.53125 53.847656 -8.320312 54.265625 -7.90625 C 54.679688 -7.488281 54.890625 -6.929688 54.890625 -6.234375 L 54.890625 -2.203125 C 54.890625 -1.566406 54.6875 -1.039062 54.28125 -0.625 C 53.882812 -0.207031 53.351562 0 52.6875 0 Z M 52.6875 0 "/></g></g></g><g fill="#ffe63e" fill-opacity="1"><g transform="translate(474.577396, 635.32835)"><g><path d="M 58.6875 0 L 10.28125 0 C 8.8125 0 8.078125 -0.695312 8.078125 -2.09375 L 8.078125 -71.796875 C 8.078125 -73.328125 8.8125 -74.09375 10.28125 -74.09375 L 58.28125 -74.09375 C 59.78125 -74.09375 60.53125 -73.3125 60.53125 -71.75 L 60.53125 -67.71875 C 60.53125 -67.082031 60.320312 -66.539062 59.90625 -66.09375 C 59.488281 -65.644531 58.914062 -65.421875 58.1875 -65.421875 L 16.71875 -65.421875 L 16.71875 -43.359375 L 49.703125 -43.359375 C 50.328125 -43.359375 50.847656 -43.164062 51.265625 -42.78125 C 51.679688 -42.40625 51.890625 -41.832031 51.890625 -41.0625 L 51.890625 -36.96875 C 51.890625 -36.34375 51.695312 -35.800781 51.3125 -35.34375 C 50.9375 -34.894531 50.398438 -34.671875 49.703125 -34.671875 L 16.71875 -34.671875 L 16.71875 -8.6875 L 58.625 -8.6875 C 60.125 -8.6875 60.875 -7.90625 60.875 -6.34375 L 60.875 -2.203125 C 60.875 -0.734375 60.144531 0 58.6875 0 Z M 58.6875 0 "/></g></g></g><g fill="#ffe63e" fill-opacity="1"><g transform="translate(545.082157, 635.32835)"><g><path d="M 14.515625 0 L 10.28125 0 C 8.8125 0 8.078125 -0.734375 8.078125 -2.203125 L 8.078125 -71.703125 C 8.078125 -73.296875 8.8125 -74.09375 10.28125 -74.09375 L 39.125 -74.09375 C 42.382812 -74.09375 45.4375 -73.484375 48.28125 -72.265625 C 51.125 -71.054688 53.617188 -69.367188 55.765625 -67.203125 C 57.910156 -65.046875 59.582031 -62.546875 60.78125 -59.703125 C 61.976562 -56.859375 62.578125 -53.804688 62.578125 -50.546875 C 62.578125 -47.484375 62.019531 -44.570312 60.90625 -41.8125 C 59.789062 -39.050781 58.21875 -36.585938 56.1875 -34.421875 C 54.15625 -32.265625 51.742188 -30.535156 48.953125 -29.234375 L 62.078125 -2.203125 C 62.242188 -1.703125 62.328125 -1.398438 62.328125 -1.296875 C 62.328125 -0.429688 61.726562 0 60.53125 0 L 54.984375 0 C 54.359375 0 53.851562 -0.15625 53.46875 -0.46875 C 53.082031 -0.789062 52.738281 -1.265625 52.4375 -1.890625 L 40.375 -27.296875 C 40.101562 -27.265625 39.722656 -27.238281 39.234375 -27.21875 C 38.753906 -27.195312 38.164062 -27.1875 37.46875 -27.1875 C 37.238281 -27.15625 36.972656 -27.140625 36.671875 -27.140625 C 36.367188 -27.140625 36.003906 -27.140625 35.578125 -27.140625 L 16.71875 -27.140625 L 16.71875 -2.203125 C 16.71875 -0.734375 15.984375 0 14.515625 0 Z M 16.71875 -35.671875 L 39.265625 -35.671875 C 41.328125 -35.671875 43.25 -36.0625 45.03125 -36.84375 C 46.8125 -37.625 48.375 -38.695312 49.71875 -40.0625 C 51.070312 -41.425781 52.128906 -43.015625 52.890625 -44.828125 C 53.660156 -46.640625 54.046875 -48.5625 54.046875 -50.59375 C 54.046875 -52.65625 53.660156 -54.582031 52.890625 -56.375 C 52.128906 -58.175781 51.054688 -59.765625 49.671875 -61.140625 C 48.296875 -62.523438 46.707031 -63.609375 44.90625 -64.390625 C 43.113281 -65.171875 41.1875 -65.5625 39.125 -65.5625 L 16.71875 -65.5625 Z M 16.71875 -35.671875 "/></g></g></g><g fill="#ffe63e" fill-opacity="1"><g transform="translate(618.431057, 635.32835)"><g><path d="M 14.46875 0 L 10.328125 0 C 8.828125 0 8.078125 -0.734375 8.078125 -2.203125 L 8.078125 -71.90625 C 8.078125 -73.363281 8.828125 -74.09375 10.328125 -74.09375 L 14.46875 -74.09375 C 15.132812 -74.09375 15.675781 -73.894531 16.09375 -73.5 C 16.507812 -73.101562 16.71875 -72.570312 16.71875 -71.90625 L 16.71875 -2.203125 C 16.71875 -0.734375 15.96875 0 14.46875 0 Z M 14.46875 0 "/></g></g></g><g fill="#ffe63e" fill-opacity="1"><g transform="translate(649.617181, 635.32835)"><g><path d="M 8.828125 0 L 4.546875 0 C 3.109375 0 2.390625 -0.53125 2.390625 -1.59375 C 2.390625 -1.664062 2.394531 -1.785156 2.40625 -1.953125 C 2.425781 -2.117188 2.457031 -2.316406 2.5 -2.546875 L 19.3125 -43.015625 L 31.53125 -72.25 C 31.695312 -72.78125 31.953125 -73.21875 32.296875 -73.5625 C 32.648438 -73.914062 33.226562 -74.09375 34.03125 -74.09375 L 36.96875 -74.09375 C 37.707031 -74.09375 38.234375 -73.925781 38.546875 -73.59375 C 38.859375 -73.257812 39.148438 -72.8125 39.421875 -72.25 L 68.15625 -2.84375 C 68.15625 -2.738281 68.222656 -2.570312 68.359375 -2.34375 C 68.460938 -2.039062 68.515625 -1.789062 68.515625 -1.59375 C 68.515625 -0.53125 67.765625 0 66.265625 0 L 61.96875 0 C 60.675781 0 59.78125 -0.628906 59.28125 -1.890625 L 53.484375 -16.21875 L 17.21875 -16.21875 L 11.578125 -2 C 11.046875 -0.664062 10.128906 0 8.828125 0 Z M 20.8125 -24.703125 L 50 -24.703125 L 35.484375 -61.21875 Z M 20.8125 -24.703125 "/></g></g></g><g clip-path="url(#9f690b5e75)"><path fill="#ffe63e" d="M 577.757812 531.859375 C 577.757812 533.546875 576.390625 534.917969 574.699219 534.917969 L 235.296875 534.917969 C 233.605469 534.917969 232.238281 533.546875 232.238281 531.859375 C 232.238281 530.167969 233.605469 528.800781 235.296875 528.800781 L 574.699219 528.800781 C 576.390625 528.800781 577.757812 530.167969 577.757812 531.859375 Z M 577.757812 531.859375 " fill-opacity="1" fill-rule="nonzero"/></g><g clip-path="url(#11d989299a)"><path fill="#ffe63e" d="M 577.757812 533.949219 C 577.757812 535.636719 576.390625 537.007812 574.699219 537.007812 L 235.296875 537.007812 C 233.605469 537.007812 232.238281 535.636719 232.238281 533.949219 C 232.238281 532.257812 233.605469 530.890625 235.296875 530.890625 L 574.699219 530.890625 C 576.390625 530.890625 577.757812 532.257812 577.757812 533.949219 Z M 577.757812 533.949219 " fill-opacity="1" fill-rule="nonzero"/></g><g clip-path="url(#f8a1a28770)"><path fill="#ffe63e" d="M 577.757812 534.917969 C 577.757812 536.609375 576.390625 537.976562 574.699219 537.976562 L 235.296875 537.976562 C 233.605469 537.976562 232.238281 536.609375 232.238281 534.917969 C 232.238281 533.230469 233.605469 531.859375 235.296875 531.859375 L 574.699219 531.859375 C 576.390625 531.859375 577.757812 533.230469 577.757812 534.917969 Z M 577.757812 534.917969 " fill-opacity="1" fill-rule="nonzero"/></g></svg>