<svg xmlns="http://www.w3.org/2000/svg" xmlns:xlink="http://www.w3.org/1999/xlink" width="1080" zoomAndPan="magnify" viewBox="0 0 810 809.999993" height="1080" preserveAspectRatio="xMidYMid meet" version="1.0"><defs><clipPath id="245fe8fa0c"><path d="M 649.460938 272.777344 L 764.464844 272.777344 L 764.464844 437.027344 L 649.460938 437.027344 Z M 649.460938 272.777344 " clip-rule="nonzero"/></clipPath><clipPath id="ae3bc06de9"><path d="M 45.53125 272.777344 L 160.535156 272.777344 L 160.535156 437.027344 L 45.53125 437.027344 Z M 45.53125 272.777344 " clip-rule="nonzero"/></clipPath></defs><path fill="#ffe63e" d="M 392.84375 385.351562 L 431.261719 385.351562 L 471.246094 386.136719 L 499.863281 387.3125 L 528.480469 388.882812 L 554.355469 390.839844 L 582.972656 393.585938 L 602.570312 395.9375 L 621.78125 398.679688 L 641.773438 402.210938 L 658.628906 405.738281 L 670.390625 408.875 L 679.800781 412.011719 L 686.855469 415.144531 L 689.601562 417.105469 L 691.167969 419.457031 L 691.558594 420.632812 L 691.558594 426.90625 L 690.382812 428.867188 L 687.246094 430.433594 L 679.800781 431.21875 L 666.863281 432.003906 L 653.535156 432.394531 L 626.09375 432.789062 L 569.25 433.179688 L 432.042969 433.964844 L 185.855469 434.746094 L 127.054688 434.746094 L 124.3125 433.570312 L 122.351562 431.609375 L 121.175781 429.257812 L 121.175781 424.945312 L 123.132812 421.8125 L 126.269531 419.066406 L 131.757812 415.929688 L 141.953125 411.226562 L 154.496094 407.304688 L 165.082031 404.5625 L 182.722656 401.035156 L 201.929688 397.898438 L 225.84375 394.761719 L 243.875 392.800781 L 269.75 390.449219 L 298.757812 388.488281 L 321.496094 387.3125 L 352.464844 386.136719 L 368.539062 385.746094 Z M 392.84375 385.351562 " fill-opacity="1" fill-rule="nonzero"/><path fill="#ffe63e" d="M 729.191406 448.46875 L 749.96875 448.46875 L 754.675781 449.25 L 758.203125 450.820312 L 761.730469 453.171875 L 764.082031 456.308594 L 765.257812 459.445312 L 765.257812 462.582031 L 763.691406 466.894531 L 760.164062 470.421875 L 755.457031 472.773438 L 752.324219 473.558594 L 748.011719 473.949219 L 60.019531 477.476562 L 54.53125 476.691406 L 50.609375 474.734375 L 47.476562 471.597656 L 45.90625 468.070312 L 45.515625 466.5 L 45.515625 462.972656 L 47.082031 458.660156 L 49.042969 455.917969 L 52.570312 453.5625 L 56.097656 452.386719 L 58.84375 451.996094 L 117.644531 451.605469 Z M 729.191406 448.46875 " fill-opacity="1" fill-rule="nonzero"/><path fill="#ffe63e" d="M 350.503906 325.375 L 448.902344 325.375 L 449.683594 325.765625 L 453.214844 338.3125 L 457.523438 355.558594 L 457.523438 359.089844 L 456.347656 359.871094 L 396.371094 359.871094 L 344.625 359.480469 L 344.230469 359.089844 L 344.230469 355.167969 L 348.9375 328.511719 L 349.71875 325.765625 Z M 350.503906 325.375 " fill-opacity="1" fill-rule="nonzero"/><path fill="#ffe63e" d="M 729.191406 448.46875 L 749.96875 448.46875 L 754.675781 449.25 L 758.203125 450.820312 L 761.730469 453.171875 L 764.082031 456.308594 L 765.257812 459.445312 L 765.257812 462.582031 L 763.691406 466.894531 L 760.164062 470.421875 L 755.457031 472.773438 L 752.324219 473.558594 L 748.011719 473.949219 L 60.019531 477.476562 L 54.53125 476.691406 L 50.609375 474.734375 L 47.476562 471.597656 L 45.90625 468.070312 L 45.515625 466.5 L 45.515625 462.972656 L 47.082031 458.660156 L 49.042969 455.917969 L 52.570312 453.5625 L 56.097656 452.386719 L 58.84375 451.996094 L 117.644531 451.605469 Z M 703.320312 449.25 L 480.65625 450.429688 L 93.734375 452.386719 L 57.667969 452.78125 L 54.140625 453.5625 L 50.21875 455.917969 L 47.867188 458.660156 L 46.300781 462.972656 L 46.300781 466.5 L 47.867188 470.8125 L 50.21875 473.558594 L 52.570312 475.125 L 57.667969 476.691406 L 102.359375 476.691406 L 313.261719 475.515625 L 750.363281 473.164062 L 754.675781 472.382812 L 760.164062 469.636719 L 762.90625 466.894531 L 764.476562 463.363281 L 764.476562 458.660156 L 762.515625 454.738281 L 759.769531 452.386719 L 755.851562 450.429688 L 751.144531 449.25 Z M 703.320312 449.25 " fill-opacity="1" fill-rule="nonzero"/><path fill="#ffe63e" d="M 349.71875 325.765625 L 350.503906 326.160156 L 350.113281 331.648438 L 349.71875 334.78125 L 349.328125 335.175781 L 348.152344 343.800781 L 347.761719 344.191406 L 346.976562 350.855469 L 346.191406 350.855469 L 345.800781 357.910156 L 345.015625 357.910156 L 345.015625 358.695312 L 346.191406 358.304688 L 456.742188 358.304688 L 455.957031 356.34375 L 453.996094 347.71875 L 453.214844 345.367188 L 452.429688 341.054688 L 451.644531 338.703125 L 450.078125 332.429688 L 449.292969 330.078125 L 448.902344 325.765625 L 449.683594 325.765625 L 453.214844 338.3125 L 457.523438 355.558594 L 457.523438 359.089844 L 456.347656 359.871094 L 396.371094 359.871094 L 344.625 359.480469 L 344.230469 359.089844 L 344.230469 355.167969 L 348.9375 328.511719 Z M 349.71875 325.765625 " fill-opacity="1" fill-rule="nonzero"/><path fill="#ffe63e" d="M 350.503906 325.375 L 448.902344 325.375 L 448.507812 326.160156 L 444.980469 326.550781 L 444.195312 326.941406 L 352.074219 326.941406 Z M 350.503906 325.375 " fill-opacity="1" fill-rule="nonzero"/><g clip-path="url(#245fe8fa0c)"><path fill="#d9d9d9" d="M 692.007812 272.460938 C 684.054688 280.199219 673.273438 295.683594 679.125 310.636719 C 682.734375 319.855469 693.476562 321.285156 705.449219 329.34375 C 710.59375 332.804688 707.109375 339.765625 695.492188 342.453125 C 686.609375 344.507812 677.75 346.707031 669.171875 349.789062 C 656.570312 354.316406 649.460938 361.949219 649.460938 371.570312 C 649.460938 380.925781 655.375 387.683594 666.808594 390.699219 C 674.867188 392.820312 680.597656 392.816406 701.84375 395.359375 C 713.597656 396.761719 728.75 399.992188 734.257812 410.46875 C 741.074219 423.433594 727.769531 435.582031 718.28125 433.617188 C 726.539062 438.308594 745.941406 439.390625 756.816406 428.808594 C 763.625 422.183594 766.003906 412.460938 763.488281 403.296875 C 760.746094 393.304688 749.792969 383.96875 739.929688 380.792969 C 704.25 369.300781 671.375 384.265625 670.316406 370.230469 C 669.519531 359.707031 686.765625 360.4375 713.335938 354.746094 C 725.226562 352.195312 737.921875 345.246094 733.78125 333.488281 C 726.503906 312.832031 668.96875 320.65625 692.007812 272.460938 " fill-opacity="1" fill-rule="nonzero"/></g><g clip-path="url(#ae3bc06de9)"><path fill="#d9d9d9" d="M 117.988281 272.460938 C 125.941406 280.199219 136.71875 295.683594 130.871094 310.636719 C 127.261719 319.855469 116.519531 321.285156 104.542969 329.34375 C 99.402344 332.804688 102.886719 339.765625 114.503906 342.453125 C 123.386719 344.507812 132.246094 346.707031 140.824219 349.789062 C 153.425781 354.316406 160.535156 361.949219 160.535156 371.570312 C 160.535156 380.925781 154.621094 387.683594 143.1875 390.699219 C 135.125 392.820312 129.398438 392.816406 108.152344 395.359375 C 96.398438 396.761719 81.246094 399.992188 75.738281 410.46875 C 68.921875 423.433594 82.226562 435.582031 91.714844 433.617188 C 83.453125 438.308594 64.054688 439.390625 53.179688 428.808594 C 46.371094 422.183594 43.992188 412.460938 46.507812 403.296875 C 49.246094 393.304688 60.203125 383.96875 70.066406 380.792969 C 105.746094 369.300781 138.621094 384.265625 139.679688 370.230469 C 140.472656 359.707031 123.230469 360.4375 96.660156 354.746094 C 84.765625 352.195312 72.070312 345.246094 76.214844 333.488281 C 83.492188 312.832031 141.023438 320.65625 117.988281 272.460938 " fill-opacity="1" fill-rule="nonzero"/></g></svg>