<svg xmlns="http://www.w3.org/2000/svg" xmlns:xlink="http://www.w3.org/1999/xlink" width="1080" zoomAndPan="magnify" viewBox="0 0 810 809.999993" height="1080" preserveAspectRatio="xMidYMid meet" version="1.0"><defs><g/></defs><g fill="#000000" fill-opacity="1"><g transform="translate(239.88843, 325.348232)"><g><path d="M 94.625 -27.265625 C 95.675781 -27.265625 96.507812 -26.773438 97.125 -25.796875 C 97.738281 -24.816406 98.046875 -23.472656 98.046875 -21.765625 C 98.046875 -18.585938 97.269531 -16.0625 95.71875 -14.1875 C 91.15625 -8.71875 86.734375 -4.882812 82.453125 -2.6875 C 78.179688 -0.488281 73.03125 0.609375 67 0.609375 C 62.757812 0.609375 58.84375 0.0820312 55.25 -0.96875 C 51.664062 -2.03125 47.304688 -3.625 42.171875 -5.75 C 37.523438 -7.78125 33.046875 -9.453125 28.734375 -10.765625 C 24.578125 -3.179688 18.34375 0.609375 10.03125 0.609375 C 5.457031 0.609375 1.804688 -0.425781 -0.921875 -2.5 C -3.648438 -4.582031 -5.015625 -7.253906 -5.015625 -10.515625 C -5.015625 -14.503906 -3.097656 -17.820312 0.734375 -20.46875 C 4.566406 -23.125 9.660156 -24.453125 16.015625 -24.453125 L 17.609375 -24.453125 L 19.796875 -60.03125 C 20.285156 -68.175781 21.753906 -74.894531 24.203125 -80.1875 C 26.648438 -85.488281 30.035156 -90.015625 34.359375 -93.765625 C 38.097656 -97.023438 42.375 -99.488281 47.1875 -101.15625 C 52 -102.832031 57.09375 -103.671875 62.46875 -103.671875 C 71.269531 -103.671875 78.035156 -101.382812 82.765625 -96.8125 C 87.492188 -92.25 89.859375 -86.300781 89.859375 -78.96875 C 89.859375 -74 88.957031 -69.984375 87.15625 -66.921875 C 85.363281 -63.867188 82.878906 -62.34375 79.703125 -62.34375 C 77.421875 -62.34375 75.628906 -62.890625 74.328125 -63.984375 C 73.023438 -65.085938 72.375 -66.660156 72.375 -68.703125 C 72.375 -69.441406 72.535156 -70.785156 72.859375 -72.734375 C 73.347656 -75.015625 73.59375 -77.050781 73.59375 -78.84375 C 73.59375 -82.269531 72.59375 -84.976562 70.59375 -86.96875 C 68.601562 -88.96875 65.566406 -89.96875 61.484375 -89.96875 C 54.316406 -89.96875 48.773438 -87.625 44.859375 -82.9375 C 40.953125 -78.257812 38.46875 -70.90625 37.40625 -60.875 L 34.59375 -33.125 C 34.1875 -29.21875 33.65625 -25.835938 33 -22.984375 C 38.21875 -22.085938 44.738281 -20.660156 52.5625 -18.703125 C 57.125 -17.566406 60.628906 -16.753906 63.078125 -16.265625 C 65.523438 -15.773438 67.6875 -15.53125 69.5625 -15.53125 C 74.289062 -15.53125 78.34375 -16.320312 81.71875 -17.90625 C 85.101562 -19.5 88.304688 -22.046875 91.328125 -25.546875 C 92.296875 -26.691406 93.394531 -27.265625 94.625 -27.265625 Z M 94.625 -27.265625 "/></g></g></g><g fill="#000000" fill-opacity="1"><g transform="translate(322.160917, 325.348232)"><g><path d="M 20.90625 0.609375 C 15.851562 0.609375 11.816406 -1.222656 8.796875 -4.890625 C 5.785156 -8.554688 4.28125 -13.363281 4.28125 -19.3125 C 4.28125 -25.832031 5.785156 -32.003906 8.796875 -37.828125 C 11.816406 -43.660156 15.832031 -48.347656 20.84375 -51.890625 C 25.851562 -55.441406 31.171875 -57.21875 36.796875 -57.21875 C 38.585938 -57.21875 39.789062 -56.867188 40.40625 -56.171875 C 41.019531 -55.484375 41.53125 -54.238281 41.9375 -52.4375 C 43.644531 -52.769531 45.4375 -52.9375 47.3125 -52.9375 C 51.300781 -52.9375 53.296875 -51.507812 53.296875 -48.65625 C 53.296875 -46.945312 52.6875 -42.875 51.46875 -36.4375 C 49.59375 -27.0625 48.65625 -20.539062 48.65625 -16.875 C 48.65625 -15.644531 48.957031 -14.664062 49.5625 -13.9375 C 50.175781 -13.207031 50.972656 -12.84375 51.953125 -12.84375 C 53.503906 -12.84375 55.378906 -13.835938 57.578125 -15.828125 C 59.773438 -17.828125 62.75 -21.066406 66.5 -25.546875 C 67.476562 -26.691406 68.582031 -27.265625 69.8125 -27.265625 C 70.863281 -27.265625 71.695312 -26.773438 72.3125 -25.796875 C 72.925781 -24.816406 73.234375 -23.472656 73.234375 -21.765625 C 73.234375 -18.503906 72.457031 -15.976562 70.90625 -14.1875 C 67.5625 -10.03125 64.015625 -6.523438 60.265625 -3.671875 C 56.515625 -0.816406 52.890625 0.609375 49.390625 0.609375 C 46.703125 0.609375 44.234375 -0.304688 41.984375 -2.140625 C 39.742188 -3.972656 38.054688 -6.476562 36.921875 -9.65625 C 32.679688 -2.8125 27.34375 0.609375 20.90625 0.609375 Z M 25.3125 -11.734375 C 27.101562 -11.734375 28.8125 -12.789062 30.4375 -14.90625 C 32.070312 -17.03125 33.253906 -19.84375 33.984375 -23.34375 L 38.515625 -45.84375 C 35.085938 -45.757812 31.925781 -44.472656 29.03125 -41.984375 C 26.132812 -39.503906 23.832031 -36.226562 22.125 -32.15625 C 20.414062 -28.082031 19.5625 -23.757812 19.5625 -19.1875 C 19.5625 -16.664062 20.066406 -14.789062 21.078125 -13.5625 C 22.097656 -12.34375 23.507812 -11.734375 25.3125 -11.734375 Z M 25.3125 -11.734375 "/></g></g></g><g fill="#000000" fill-opacity="1"><g transform="translate(46.319397, 459.16116)"><g><path d="M 152.078125 -150.09375 C 155.816406 -149.363281 158.617188 -148.09375 160.484375 -146.28125 C 162.347656 -144.476562 163.28125 -142.375 163.28125 -139.96875 C 163.28125 -135.988281 162.164062 -133.09375 159.9375 -131.28125 C 157.707031 -129.46875 154.179688 -128.742188 149.359375 -129.109375 C 138.515625 -129.953125 130.046875 -130.523438 123.953125 -130.828125 C 117.867188 -131.128906 109.882812 -131.34375 100 -131.46875 C 95.539062 -109.28125 91.441406 -86.976562 87.703125 -64.5625 C 86.378906 -56.363281 84.992188 -46.867188 83.546875 -36.078125 C 82.097656 -25.285156 81.132812 -16.578125 80.65625 -9.953125 C 80.40625 -6.453125 78.953125 -3.765625 76.296875 -1.890625 C 73.648438 -0.0234375 70.457031 0.90625 66.71875 0.90625 C 62.75 0.90625 59.675781 -0.0546875 57.5 -1.984375 C 55.332031 -3.910156 54.25 -6.441406 54.25 -9.578125 C 54.25 -12.472656 54.695312 -17.265625 55.59375 -23.953125 C 56.5 -30.648438 57.554688 -37.675781 58.765625 -45.03125 C 60.097656 -52.382812 61.125 -58.769531 61.84375 -64.1875 C 63.164062 -73.351562 64.671875 -82.457031 66.359375 -91.5 C 68.046875 -100.539062 69.734375 -109.097656 71.421875 -117.171875 C 71.785156 -118.984375 72.207031 -121.0625 72.6875 -123.40625 C 73.175781 -125.757812 73.722656 -128.382812 74.328125 -131.28125 C 62.503906 -130.914062 53.21875 -129.945312 46.46875 -128.375 C 39.71875 -126.8125 34.925781 -124.613281 32.09375 -121.78125 C 29.257812 -118.945312 27.84375 -115.300781 27.84375 -110.84375 C 27.84375 -106.75 29.050781 -102.832031 31.46875 -99.09375 C 31.945312 -98.25 32.1875 -97.34375 32.1875 -96.375 C 32.1875 -94.09375 30.828125 -91.957031 28.109375 -89.96875 C 25.398438 -87.976562 22.597656 -86.984375 19.703125 -86.984375 C 17.660156 -86.984375 15.972656 -87.582031 14.640625 -88.78125 C 12.234375 -90.832031 10.242188 -93.753906 8.671875 -97.546875 C 7.109375 -101.347656 6.328125 -105.660156 6.328125 -110.484375 C 6.328125 -120.734375 9.671875 -128.960938 16.359375 -135.171875 C 23.054688 -141.378906 33.242188 -145.925781 46.921875 -148.8125 C 60.609375 -151.707031 78.179688 -153.15625 99.640625 -153.15625 C 112.898438 -153.15625 123.476562 -152.914062 131.375 -152.4375 C 139.269531 -151.957031 146.171875 -151.175781 152.078125 -150.09375 Z M 152.078125 -150.09375 "/></g></g></g><g fill="#000000" fill-opacity="1"><g transform="translate(165.4828, 459.16116)"><g><path d="M 30.921875 0.90625 C 23.441406 0.90625 17.472656 -1.804688 13.015625 -7.234375 C 8.554688 -12.660156 6.328125 -19.773438 6.328125 -28.578125 C 6.328125 -38.210938 8.554688 -47.335938 13.015625 -55.953125 C 17.472656 -64.578125 23.410156 -71.507812 30.828125 -76.75 C 38.242188 -82 46.109375 -84.625 54.421875 -84.625 C 57.078125 -84.625 58.859375 -84.109375 59.765625 -83.078125 C 60.671875 -82.054688 61.425781 -80.222656 62.03125 -77.578125 C 64.5625 -78.054688 67.210938 -78.296875 69.984375 -78.296875 C 75.890625 -78.296875 78.84375 -76.1875 78.84375 -71.96875 C 78.84375 -69.4375 77.9375 -63.410156 76.125 -53.890625 C 73.351562 -40.023438 71.96875 -30.378906 71.96875 -24.953125 C 71.96875 -23.140625 72.421875 -21.691406 73.328125 -20.609375 C 74.234375 -19.523438 75.410156 -18.984375 76.859375 -18.984375 C 79.140625 -18.984375 81.90625 -20.457031 85.15625 -23.40625 C 88.414062 -26.363281 92.820312 -31.160156 98.375 -37.796875 C 99.820312 -39.484375 101.445312 -40.328125 103.25 -40.328125 C 104.820312 -40.328125 106.054688 -39.601562 106.953125 -38.15625 C 107.859375 -36.707031 108.3125 -34.71875 108.3125 -32.1875 C 108.3125 -27.363281 107.164062 -23.625 104.875 -20.96875 C 99.9375 -14.820312 94.691406 -9.640625 89.140625 -5.421875 C 83.597656 -1.203125 78.234375 0.90625 73.046875 0.90625 C 69.078125 0.90625 65.429688 -0.445312 62.109375 -3.15625 C 58.796875 -5.875 56.296875 -9.582031 54.609375 -14.28125 C 48.335938 -4.15625 40.441406 0.90625 30.921875 0.90625 Z M 37.4375 -17.359375 C 40.082031 -17.359375 42.609375 -18.925781 45.015625 -22.0625 C 47.429688 -25.195312 49.179688 -29.351562 50.265625 -34.53125 L 56.953125 -67.8125 C 51.890625 -67.6875 47.21875 -65.785156 42.9375 -62.109375 C 38.664062 -58.429688 35.265625 -53.578125 32.734375 -47.546875 C 30.203125 -41.523438 28.9375 -35.140625 28.9375 -28.390625 C 28.9375 -24.648438 29.6875 -21.875 31.1875 -20.0625 C 32.695312 -18.257812 34.78125 -17.359375 37.4375 -17.359375 Z M 37.4375 -17.359375 "/></g></g></g><g fill="#000000" fill-opacity="1"><g transform="translate(243.599016, 459.16116)"><g><path d="M 21.515625 0.90625 C 16.929688 0.90625 13.707031 -1.503906 11.84375 -6.328125 C 9.976562 -11.148438 9.046875 -18.863281 9.046875 -29.46875 C 9.046875 -45.144531 11.273438 -60.035156 15.734375 -74.140625 C 16.816406 -77.640625 18.59375 -80.203125 21.0625 -81.828125 C 23.539062 -83.453125 27.007812 -84.265625 31.46875 -84.265625 C 33.875 -84.265625 35.554688 -83.960938 36.515625 -83.359375 C 37.484375 -82.753906 37.96875 -81.609375 37.96875 -79.921875 C 37.96875 -77.992188 37.066406 -73.65625 35.265625 -66.90625 C 34.054688 -62.082031 33.085938 -57.890625 32.359375 -54.328125 C 31.640625 -50.773438 31.039062 -46.347656 30.5625 -41.046875 C 33.8125 -50.453125 37.695312 -58.410156 42.21875 -64.921875 C 46.738281 -71.429688 51.378906 -76.28125 56.140625 -79.46875 C 60.910156 -82.664062 65.40625 -84.265625 69.625 -84.265625 C 73.84375 -84.265625 76.820312 -83.300781 78.5625 -81.375 C 80.3125 -79.445312 81.1875 -76.492188 81.1875 -72.515625 C 81.1875 -68.648438 80.039062 -61.65625 77.75 -51.53125 C 76.789062 -47.195312 76.128906 -43.941406 75.765625 -41.765625 C 81.796875 -56.597656 88.488281 -67.390625 95.84375 -74.140625 C 103.195312 -80.890625 110.066406 -84.265625 116.453125 -84.265625 C 124.285156 -84.265625 128.203125 -80.347656 128.203125 -72.515625 C 128.203125 -67.804688 126.878906 -59.304688 124.234375 -47.015625 C 121.941406 -36.523438 120.796875 -29.59375 120.796875 -26.21875 C 120.796875 -21.394531 122.539062 -18.984375 126.03125 -18.984375 C 128.445312 -18.984375 131.3125 -20.457031 134.625 -23.40625 C 137.9375 -26.363281 142.367188 -31.160156 147.921875 -37.796875 C 149.367188 -39.484375 150.992188 -40.328125 152.796875 -40.328125 C 154.367188 -40.328125 155.601562 -39.601562 156.5 -38.15625 C 157.40625 -36.707031 157.859375 -34.71875 157.859375 -32.1875 C 157.859375 -27.363281 156.710938 -23.625 154.421875 -20.96875 C 149.242188 -14.582031 143.671875 -9.335938 137.703125 -5.234375 C 131.734375 -1.140625 124.953125 0.90625 117.359375 0.90625 C 111.210938 0.90625 106.570312 -0.867188 103.4375 -4.421875 C 100.300781 -7.984375 98.734375 -13.140625 98.734375 -19.890625 C 98.734375 -23.265625 99.578125 -29.289062 101.265625 -37.96875 C 102.828125 -45.5625 103.609375 -50.804688 103.609375 -53.703125 C 103.609375 -55.628906 102.945312 -56.59375 101.625 -56.59375 C 100.0625 -56.59375 97.832031 -54.570312 94.9375 -50.53125 C 92.039062 -46.5 89.144531 -41.164062 86.25 -34.53125 C 83.363281 -27.90625 81.015625 -20.914062 79.203125 -13.5625 C 77.878906 -7.769531 76.34375 -3.910156 74.59375 -1.984375 C 72.84375 -0.0546875 70.039062 0.90625 66.1875 0.90625 C 62.207031 0.90625 59.222656 -0.988281 57.234375 -4.78125 C 55.242188 -8.582031 54.25 -13.195312 54.25 -18.625 C 54.25 -23.207031 54.851562 -29.835938 56.0625 -38.515625 C 57.019531 -46.234375 57.5 -51.296875 57.5 -53.703125 C 57.5 -55.628906 56.835938 -56.59375 55.515625 -56.59375 C 53.703125 -56.59375 51.410156 -54.421875 48.640625 -50.078125 C 45.867188 -45.742188 43.1875 -40.203125 40.59375 -33.453125 C 38 -26.703125 35.921875 -20.070312 34.359375 -13.5625 C 33.035156 -7.894531 31.5 -4.066406 29.75 -2.078125 C 28 -0.0859375 25.253906 0.90625 21.515625 0.90625 Z M 21.515625 0.90625 "/></g></g></g><g fill="#000000" fill-opacity="1"><g transform="translate(371.261166, 459.16116)"><g><path d="M 30.921875 0.90625 C 23.441406 0.90625 17.472656 -1.804688 13.015625 -7.234375 C 8.554688 -12.660156 6.328125 -19.773438 6.328125 -28.578125 C 6.328125 -38.210938 8.554688 -47.335938 13.015625 -55.953125 C 17.472656 -64.578125 23.410156 -71.507812 30.828125 -76.75 C 38.242188 -82 46.109375 -84.625 54.421875 -84.625 C 57.078125 -84.625 58.859375 -84.109375 59.765625 -83.078125 C 60.671875 -82.054688 61.425781 -80.222656 62.03125 -77.578125 C 64.5625 -78.054688 67.210938 -78.296875 69.984375 -78.296875 C 75.890625 -78.296875 78.84375 -76.1875 78.84375 -71.96875 C 78.84375 -69.4375 77.9375 -63.410156 76.125 -53.890625 C 73.351562 -40.023438 71.96875 -30.378906 71.96875 -24.953125 C 71.96875 -23.140625 72.421875 -21.691406 73.328125 -20.609375 C 74.234375 -19.523438 75.410156 -18.984375 76.859375 -18.984375 C 79.140625 -18.984375 81.90625 -20.457031 85.15625 -23.40625 C 88.414062 -26.363281 92.820312 -31.160156 98.375 -37.796875 C 99.820312 -39.484375 101.445312 -40.328125 103.25 -40.328125 C 104.820312 -40.328125 106.054688 -39.601562 106.953125 -38.15625 C 107.859375 -36.707031 108.3125 -34.71875 108.3125 -32.1875 C 108.3125 -27.363281 107.164062 -23.625 104.875 -20.96875 C 99.9375 -14.820312 94.691406 -9.640625 89.140625 -5.421875 C 83.597656 -1.203125 78.234375 0.90625 73.046875 0.90625 C 69.078125 0.90625 65.429688 -0.445312 62.109375 -3.15625 C 58.796875 -5.875 56.296875 -9.582031 54.609375 -14.28125 C 48.335938 -4.15625 40.441406 0.90625 30.921875 0.90625 Z M 37.4375 -17.359375 C 40.082031 -17.359375 42.609375 -18.925781 45.015625 -22.0625 C 47.429688 -25.195312 49.179688 -29.351562 50.265625 -34.53125 L 56.953125 -67.8125 C 51.890625 -67.6875 47.21875 -65.785156 42.9375 -62.109375 C 38.664062 -58.429688 35.265625 -53.578125 32.734375 -47.546875 C 30.203125 -41.523438 28.9375 -35.140625 28.9375 -28.390625 C 28.9375 -24.648438 29.6875 -21.875 31.1875 -20.0625 C 32.695312 -18.257812 34.78125 -17.359375 37.4375 -17.359375 Z M 37.4375 -17.359375 "/></g></g></g><g fill="#000000" fill-opacity="1"><g transform="translate(449.377369, 459.16116)"><g><path d="M 77.21875 -40.328125 C 78.78125 -40.328125 80.015625 -39.601562 80.921875 -38.15625 C 81.828125 -36.707031 82.28125 -34.71875 82.28125 -32.1875 C 82.28125 -27.363281 81.132812 -23.625 78.84375 -20.96875 C 73.65625 -14.582031 68.015625 -9.335938 61.921875 -5.234375 C 55.835938 -1.140625 48.941406 0.90625 41.234375 0.90625 C 30.617188 0.90625 22.75 -3.914062 17.625 -13.5625 C 12.507812 -23.207031 9.953125 -35.6875 9.953125 -51 C 9.953125 -65.695312 11.847656 -82.445312 15.640625 -101.25 C 19.441406 -120.0625 25.046875 -136.21875 32.453125 -149.71875 C 39.867188 -163.226562 48.703125 -169.984375 58.953125 -169.984375 C 64.734375 -169.984375 69.28125 -167.300781 72.59375 -161.9375 C 75.914062 -156.570312 77.578125 -148.882812 77.578125 -138.875 C 77.578125 -124.53125 73.597656 -107.894531 65.640625 -88.96875 C 57.679688 -70.039062 46.890625 -51.296875 33.265625 -32.734375 C 34.109375 -27.785156 35.492188 -24.253906 37.421875 -22.140625 C 39.359375 -20.035156 41.894531 -18.984375 45.03125 -18.984375 C 49.96875 -18.984375 54.304688 -20.398438 58.046875 -23.234375 C 61.785156 -26.066406 66.546875 -30.921875 72.328125 -37.796875 C 73.773438 -39.484375 75.40625 -40.328125 77.21875 -40.328125 Z M 54.96875 -152.078125 C 52.195312 -152.078125 49.0625 -147.070312 45.5625 -137.0625 C 42.070312 -127.0625 39 -114.644531 36.34375 -99.8125 C 33.695312 -84.988281 32.25 -70.765625 32 -57.140625 C 40.5625 -71.242188 47.375 -85.378906 52.4375 -99.546875 C 57.5 -113.710938 60.03125 -126.640625 60.03125 -138.328125 C 60.03125 -147.492188 58.34375 -152.078125 54.96875 -152.078125 Z M 54.96875 -152.078125 "/></g></g></g><g fill="#000000" fill-opacity="1"><g transform="translate(501.454854, 459.16116)"><g><path d="M 89.328125 -40.328125 C 90.898438 -40.328125 92.132812 -39.601562 93.03125 -38.15625 C 93.9375 -36.707031 94.390625 -34.71875 94.390625 -32.1875 C 94.390625 -27.363281 93.242188 -23.625 90.953125 -20.96875 C 86.492188 -15.550781 80.195312 -10.550781 72.0625 -5.96875 C 63.925781 -1.382812 55.21875 0.90625 45.9375 0.90625 C 33.269531 0.90625 23.441406 -2.523438 16.453125 -9.390625 C 9.460938 -16.265625 5.96875 -25.671875 5.96875 -37.609375 C 5.96875 -45.929688 7.710938 -53.675781 11.203125 -60.84375 C 14.703125 -68.019531 19.554688 -73.71875 25.765625 -77.9375 C 31.972656 -82.15625 38.992188 -84.265625 46.828125 -84.265625 C 53.828125 -84.265625 59.4375 -82.179688 63.65625 -78.015625 C 67.875 -73.859375 69.984375 -68.226562 69.984375 -61.125 C 69.984375 -52.800781 67 -45.65625 61.03125 -39.6875 C 55.0625 -33.71875 44.960938 -28.988281 30.734375 -25.5 C 33.753906 -19.945312 39.484375 -17.171875 47.921875 -17.171875 C 53.347656 -17.171875 59.523438 -19.070312 66.453125 -22.875 C 73.390625 -26.675781 79.390625 -31.648438 84.453125 -37.796875 C 85.890625 -39.484375 87.515625 -40.328125 89.328125 -40.328125 Z M 43.765625 -66.546875 C 39.296875 -66.546875 35.523438 -63.953125 32.453125 -58.765625 C 29.378906 -53.585938 27.84375 -47.320312 27.84375 -39.96875 L 27.84375 -39.59375 C 34.957031 -41.289062 40.5625 -43.828125 44.65625 -47.203125 C 48.757812 -50.578125 50.8125 -54.492188 50.8125 -58.953125 C 50.8125 -61.242188 50.175781 -63.082031 48.90625 -64.46875 C 47.644531 -65.851562 45.929688 -66.546875 43.765625 -66.546875 Z M 43.765625 -66.546875 "/></g></g></g><g fill="#000000" fill-opacity="1"><g transform="translate(565.647564, 459.16116)"><g><path d="M 21.515625 0.90625 C 16.929688 0.90625 13.707031 -1.503906 11.84375 -6.328125 C 9.976562 -11.148438 9.046875 -18.863281 9.046875 -29.46875 C 9.046875 -45.144531 11.273438 -60.035156 15.734375 -74.140625 C 16.816406 -77.640625 18.59375 -80.203125 21.0625 -81.828125 C 23.539062 -83.453125 27.007812 -84.265625 31.46875 -84.265625 C 33.875 -84.265625 35.554688 -83.960938 36.515625 -83.359375 C 37.484375 -82.753906 37.96875 -81.609375 37.96875 -79.921875 C 37.96875 -77.992188 37.066406 -73.65625 35.265625 -66.90625 C 34.054688 -62.082031 33.085938 -57.863281 32.359375 -54.25 C 31.640625 -50.632812 31.039062 -46.171875 30.5625 -40.859375 C 34.539062 -51.234375 39 -59.675781 43.9375 -66.1875 C 48.882812 -72.695312 53.738281 -77.335938 58.5 -80.109375 C 63.257812 -82.878906 67.628906 -84.265625 71.609375 -84.265625 C 79.441406 -84.265625 83.359375 -80.347656 83.359375 -72.515625 C 83.359375 -70.941406 82.816406 -67.144531 81.734375 -61.125 C 80.765625 -56.300781 80.28125 -53.285156 80.28125 -52.078125 C 80.28125 -47.859375 81.789062 -45.75 84.8125 -45.75 C 88.1875 -45.75 92.523438 -48.398438 97.828125 -53.703125 C 99.390625 -55.273438 101.015625 -56.0625 102.703125 -56.0625 C 104.273438 -56.0625 105.515625 -55.363281 106.421875 -53.96875 C 107.328125 -52.582031 107.78125 -50.75 107.78125 -48.46875 C 107.78125 -44 106.570312 -40.5 104.15625 -37.96875 C 100.78125 -34.476562 96.832031 -31.492188 92.3125 -29.015625 C 87.789062 -26.546875 83 -25.3125 77.9375 -25.3125 C 71.550781 -25.3125 66.695312 -26.9375 63.375 -30.1875 C 60.0625 -33.445312 58.40625 -37.851562 58.40625 -43.40625 C 58.40625 -45.207031 58.585938 -47.015625 58.953125 -48.828125 C 59.191406 -51.234375 59.3125 -52.859375 59.3125 -53.703125 C 59.3125 -55.628906 58.648438 -56.59375 57.328125 -56.59375 C 55.515625 -56.59375 53.128906 -54.570312 50.171875 -50.53125 C 47.222656 -46.5 44.300781 -41.164062 41.40625 -34.53125 C 38.507812 -27.90625 36.160156 -20.914062 34.359375 -13.5625 C 33.035156 -7.894531 31.5 -4.066406 29.75 -2.078125 C 28 -0.0859375 25.253906 0.90625 21.515625 0.90625 Z M 21.515625 0.90625 "/></g></g></g><g fill="#000000" fill-opacity="1"><g transform="translate(641.051399, 459.16116)"><g><path d="M 32.375 -96.203125 C 27.3125 -96.203125 23.507812 -97.375 20.96875 -99.71875 C 18.4375 -102.070312 17.171875 -105.359375 17.171875 -109.578125 C 17.171875 -113.796875 18.828125 -117.320312 22.140625 -120.15625 C 25.460938 -122.988281 29.59375 -124.40625 34.53125 -124.40625 C 39 -124.40625 42.617188 -123.320312 45.390625 -121.15625 C 48.160156 -118.988281 49.546875 -115.914062 49.546875 -111.9375 C 49.546875 -107.113281 47.976562 -103.285156 44.84375 -100.453125 C 41.707031 -97.617188 37.550781 -96.203125 32.375 -96.203125 Z M 30.921875 0.90625 C 23.085938 0.90625 17.390625 -1.863281 13.828125 -7.40625 C 10.273438 -12.957031 8.5 -20.3125 8.5 -29.46875 C 8.5 -34.894531 9.191406 -41.859375 10.578125 -50.359375 C 11.960938 -58.859375 13.738281 -66.785156 15.90625 -74.140625 C 17 -77.992188 18.445312 -80.644531 20.25 -82.09375 C 22.0625 -83.539062 24.957031 -84.265625 28.9375 -84.265625 C 35.082031 -84.265625 38.15625 -82.21875 38.15625 -78.125 C 38.15625 -75.101562 37.007812 -68.109375 34.71875 -57.140625 C 31.820312 -43.878906 30.375 -34.898438 30.375 -30.203125 C 30.375 -26.585938 30.851562 -23.8125 31.8125 -21.875 C 32.78125 -19.945312 34.410156 -18.984375 36.703125 -18.984375 C 38.878906 -18.984375 41.59375 -20.488281 44.84375 -23.5 C 48.101562 -26.519531 52.441406 -31.285156 57.859375 -37.796875 C 59.304688 -39.484375 60.9375 -40.328125 62.75 -40.328125 C 64.3125 -40.328125 65.546875 -39.601562 66.453125 -38.15625 C 67.359375 -36.707031 67.8125 -34.71875 67.8125 -32.1875 C 67.8125 -27.363281 66.664062 -23.625 64.375 -20.96875 C 52.4375 -6.382812 41.285156 0.90625 30.921875 0.90625 Z M 30.921875 0.90625 "/></g></g></g><g fill="#000000" fill-opacity="1"><g transform="translate(678.662928, 459.16116)"><g><path d="M 30.921875 0.90625 C 23.441406 0.90625 17.472656 -1.804688 13.015625 -7.234375 C 8.554688 -12.660156 6.328125 -19.773438 6.328125 -28.578125 C 6.328125 -38.210938 8.554688 -47.335938 13.015625 -55.953125 C 17.472656 -64.578125 23.410156 -71.507812 30.828125 -76.75 C 38.242188 -82 46.109375 -84.625 54.421875 -84.625 C 57.078125 -84.625 58.859375 -84.109375 59.765625 -83.078125 C 60.671875 -82.054688 61.425781 -80.222656 62.03125 -77.578125 C 64.5625 -78.054688 67.210938 -78.296875 69.984375 -78.296875 C 75.890625 -78.296875 78.84375 -76.1875 78.84375 -71.96875 C 78.84375 -69.4375 77.9375 -63.410156 76.125 -53.890625 C 73.351562 -40.023438 71.96875 -30.378906 71.96875 -24.953125 C 71.96875 -23.140625 72.421875 -21.691406 73.328125 -20.609375 C 74.234375 -19.523438 75.410156 -18.984375 76.859375 -18.984375 C 79.140625 -18.984375 81.90625 -20.457031 85.15625 -23.40625 C 88.414062 -26.363281 92.820312 -31.160156 98.375 -37.796875 C 99.820312 -39.484375 101.445312 -40.328125 103.25 -40.328125 C 104.820312 -40.328125 106.054688 -39.601562 106.953125 -38.15625 C 107.859375 -36.707031 108.3125 -34.71875 108.3125 -32.1875 C 108.3125 -27.363281 107.164062 -23.625 104.875 -20.96875 C 99.9375 -14.820312 94.691406 -9.640625 89.140625 -5.421875 C 83.597656 -1.203125 78.234375 0.90625 73.046875 0.90625 C 69.078125 0.90625 65.429688 -0.445312 62.109375 -3.15625 C 58.796875 -5.875 56.296875 -9.582031 54.609375 -14.28125 C 48.335938 -4.15625 40.441406 0.90625 30.921875 0.90625 Z M 37.4375 -17.359375 C 40.082031 -17.359375 42.609375 -18.925781 45.015625 -22.0625 C 47.429688 -25.195312 49.179688 -29.351562 50.265625 -34.53125 L 56.953125 -67.8125 C 51.890625 -67.6875 47.21875 -65.785156 42.9375 -62.109375 C 38.664062 -58.429688 35.265625 -53.578125 32.734375 -47.546875 C 30.203125 -41.523438 28.9375 -35.140625 28.9375 -28.390625 C 28.9375 -24.648438 29.6875 -21.875 31.1875 -20.0625 C 32.695312 -18.257812 34.78125 -17.359375 37.4375 -17.359375 Z M 37.4375 -17.359375 "/></g></g></g><g fill="#000000" fill-opacity="1"><g transform="translate(222.007646, 585.533262)"><g><path d="M 55.671875 0.609375 C 45.921875 0.609375 37.441406 -1.171875 30.234375 -4.734375 C 23.023438 -8.296875 17.492188 -13.351562 13.640625 -19.90625 C 9.785156 -26.46875 7.859375 -34.085938 7.859375 -42.765625 C 7.859375 -54.816406 10.132812 -65.507812 14.6875 -74.84375 C 19.238281 -84.1875 25.40625 -91.414062 33.1875 -96.53125 C 40.96875 -101.65625 49.613281 -104.21875 59.125 -104.21875 C 67.96875 -104.21875 74.679688 -101.941406 79.265625 -97.390625 C 83.859375 -92.847656 86.15625 -86.847656 86.15625 -79.390625 C 86.15625 -74.398438 85.273438 -70.390625 83.515625 -67.359375 C 81.753906 -64.328125 79.234375 -62.8125 75.953125 -62.8125 C 73.660156 -62.8125 71.859375 -63.34375 70.546875 -64.40625 C 69.234375 -65.46875 68.578125 -67.023438 68.578125 -69.078125 C 68.578125 -69.804688 68.742188 -71.15625 69.078125 -73.125 C 69.566406 -75.582031 69.8125 -77.550781 69.8125 -79.03125 C 69.8125 -86.488281 65.835938 -90.21875 57.890625 -90.21875 C 52.484375 -90.21875 47.320312 -88.453125 42.40625 -84.921875 C 37.488281 -81.398438 33.515625 -76.21875 30.484375 -69.375 C 27.453125 -62.539062 25.9375 -54.410156 25.9375 -44.984375 C 25.9375 -35.148438 28.679688 -27.550781 34.171875 -22.1875 C 39.660156 -16.820312 47.769531 -14.140625 58.5 -14.140625 C 63.832031 -14.140625 69.222656 -14.8125 74.671875 -16.15625 C 80.117188 -17.507812 86.160156 -19.582031 92.796875 -22.375 C 94.023438 -22.863281 95.046875 -23.109375 95.859375 -23.109375 C 97.171875 -23.109375 98.15625 -22.613281 98.8125 -21.625 C 99.46875 -20.644531 99.796875 -19.378906 99.796875 -17.828125 C 99.796875 -12.828125 97.09375 -9.140625 91.6875 -6.765625 C 85.875 -4.222656 79.832031 -2.359375 73.5625 -1.171875 C 67.289062 0.015625 61.328125 0.609375 55.671875 0.609375 Z M 55.671875 0.609375 "/></g></g></g><g fill="#000000" fill-opacity="1"><g transform="translate(306.308534, 585.533262)"><g><path d="M 21.015625 0.609375 C 15.929688 0.609375 11.875 -1.234375 8.84375 -4.921875 C 5.8125 -8.609375 4.296875 -13.441406 4.296875 -19.421875 C 4.296875 -25.972656 5.8125 -32.175781 8.84375 -38.03125 C 11.875 -43.894531 15.910156 -48.609375 20.953125 -52.171875 C 25.992188 -55.734375 31.34375 -57.515625 37 -57.515625 C 38.800781 -57.515625 40.007812 -57.164062 40.625 -56.46875 C 41.238281 -55.78125 41.75 -54.535156 42.15625 -52.734375 C 43.875 -53.054688 45.675781 -53.21875 47.5625 -53.21875 C 51.582031 -53.21875 53.59375 -51.785156 53.59375 -48.921875 C 53.59375 -47.191406 52.976562 -43.09375 51.75 -36.625 C 49.863281 -27.195312 48.921875 -20.644531 48.921875 -16.96875 C 48.921875 -15.738281 49.226562 -14.753906 49.84375 -14.015625 C 50.457031 -13.273438 51.253906 -12.90625 52.234375 -12.90625 C 53.796875 -12.90625 55.679688 -13.90625 57.890625 -15.90625 C 60.097656 -17.914062 63.085938 -21.175781 66.859375 -25.6875 C 67.835938 -26.832031 68.941406 -27.40625 70.171875 -27.40625 C 71.242188 -27.40625 72.085938 -26.910156 72.703125 -25.921875 C 73.316406 -24.941406 73.625 -23.59375 73.625 -21.875 C 73.625 -18.601562 72.84375 -16.0625 71.28125 -14.25 C 67.925781 -10.070312 64.363281 -6.550781 60.59375 -3.6875 C 56.820312 -0.820312 53.175781 0.609375 49.65625 0.609375 C 46.945312 0.609375 44.46875 -0.3125 42.21875 -2.15625 C 39.96875 -4 38.269531 -6.515625 37.125 -9.703125 C 32.851562 -2.828125 27.484375 0.609375 21.015625 0.609375 Z M 25.4375 -11.796875 C 27.238281 -11.796875 28.957031 -12.859375 30.59375 -14.984375 C 32.238281 -17.117188 33.429688 -19.945312 34.171875 -23.46875 L 38.71875 -46.09375 C 35.269531 -46.007812 32.09375 -44.71875 29.1875 -42.21875 C 26.28125 -39.71875 23.96875 -36.414062 22.25 -32.3125 C 20.53125 -28.21875 19.671875 -23.878906 19.671875 -19.296875 C 19.671875 -16.753906 20.179688 -14.867188 21.203125 -13.640625 C 22.222656 -12.410156 23.632812 -11.796875 25.4375 -11.796875 Z M 25.4375 -11.796875 "/></g></g></g><g fill="#000000" fill-opacity="1"><g transform="translate(364.065704, 585.533262)"><g><path d="M 14.625 0.609375 C 11.507812 0.609375 9.316406 -1.023438 8.046875 -4.296875 C 6.773438 -7.578125 6.140625 -12.820312 6.140625 -20.03125 C 6.140625 -30.6875 7.65625 -40.804688 10.6875 -50.390625 C 11.425781 -52.765625 12.632812 -54.503906 14.3125 -55.609375 C 16 -56.722656 18.359375 -57.28125 21.390625 -57.28125 C 23.023438 -57.28125 24.171875 -57.070312 24.828125 -56.65625 C 25.484375 -56.25 25.8125 -55.472656 25.8125 -54.328125 C 25.8125 -53.015625 25.195312 -50.0625 23.96875 -45.46875 C 23.144531 -42.195312 22.488281 -39.332031 22 -36.875 C 21.507812 -34.414062 21.097656 -31.382812 20.765625 -27.78125 C 23.472656 -34.820312 26.503906 -40.554688 29.859375 -44.984375 C 33.222656 -49.410156 36.519531 -52.566406 39.75 -54.453125 C 42.988281 -56.335938 45.960938 -57.28125 48.671875 -57.28125 C 53.992188 -57.28125 56.65625 -54.613281 56.65625 -49.28125 C 56.65625 -46.082031 55.753906 -40.304688 53.953125 -31.953125 C 52.398438 -24.828125 51.625 -20.117188 51.625 -17.828125 C 51.625 -14.546875 52.8125 -12.90625 55.1875 -12.90625 C 56.820312 -12.90625 58.765625 -13.90625 61.015625 -15.90625 C 63.273438 -17.914062 66.289062 -21.175781 70.0625 -25.6875 C 71.039062 -26.832031 72.144531 -27.40625 73.375 -27.40625 C 74.4375 -27.40625 75.273438 -26.910156 75.890625 -25.921875 C 76.503906 -24.941406 76.8125 -23.59375 76.8125 -21.875 C 76.8125 -18.601562 76.035156 -16.0625 74.484375 -14.25 C 70.960938 -9.914062 67.171875 -6.351562 63.109375 -3.5625 C 59.054688 -0.78125 54.445312 0.609375 49.28125 0.609375 C 45.101562 0.609375 41.945312 -0.597656 39.8125 -3.015625 C 37.6875 -5.429688 36.625 -8.929688 36.625 -13.515625 C 36.625 -15.816406 37.195312 -19.914062 38.34375 -25.8125 C 39.40625 -30.96875 39.9375 -34.53125 39.9375 -36.5 C 39.9375 -37.8125 39.488281 -38.46875 38.59375 -38.46875 C 37.53125 -38.46875 36.035156 -37.09375 34.109375 -34.34375 C 32.179688 -31.601562 30.210938 -27.976562 28.203125 -23.46875 C 26.203125 -18.96875 24.585938 -14.21875 23.359375 -9.21875 C 22.453125 -5.363281 21.40625 -2.757812 20.21875 -1.40625 C 19.03125 -0.0625 17.164062 0.609375 14.625 0.609375 Z M 14.625 0.609375 "/></g></g></g><g fill="#000000" fill-opacity="1"><g transform="translate(425.017945, 585.533262)"><g><path d="M 29.375 0.609375 C 21.34375 0.609375 15.09375 -1.660156 10.625 -6.203125 C 6.164062 -10.753906 3.9375 -16.757812 3.9375 -24.21875 C 3.9375 -30.851562 5.242188 -36.664062 7.859375 -41.65625 C 10.484375 -46.65625 13.882812 -50.507812 18.0625 -53.21875 C 22.238281 -55.925781 26.625 -57.28125 31.21875 -57.28125 C 35.726562 -57.28125 39.226562 -55.945312 41.71875 -53.28125 C 44.21875 -50.613281 45.46875 -47.191406 45.46875 -43.015625 C 45.46875 -39.578125 44.707031 -36.664062 43.1875 -34.28125 C 41.675781 -31.90625 39.691406 -30.71875 37.234375 -30.71875 C 35.679688 -30.71875 34.429688 -31.085938 33.484375 -31.828125 C 32.546875 -32.566406 32.078125 -33.59375 32.078125 -34.90625 C 32.078125 -35.476562 32.15625 -36.132812 32.3125 -36.875 C 32.476562 -37.613281 32.601562 -38.144531 32.6875 -38.46875 C 33.101562 -39.695312 33.3125 -40.84375 33.3125 -41.90625 C 33.3125 -42.976562 33.039062 -43.800781 32.5 -44.375 C 31.96875 -44.945312 31.210938 -45.234375 30.234375 -45.234375 C 28.347656 -45.234375 26.582031 -44.390625 24.9375 -42.703125 C 23.300781 -41.023438 21.992188 -38.753906 21.015625 -35.890625 C 20.035156 -33.023438 19.546875 -29.867188 19.546875 -26.421875 C 19.546875 -16.921875 23.679688 -12.171875 31.953125 -12.171875 C 35.316406 -12.171875 38.941406 -13.296875 42.828125 -15.546875 C 46.722656 -17.796875 50.554688 -21.175781 54.328125 -25.6875 C 55.304688 -26.832031 56.410156 -27.40625 57.640625 -27.40625 C 58.703125 -27.40625 59.539062 -26.910156 60.15625 -25.921875 C 60.769531 -24.941406 61.078125 -23.59375 61.078125 -21.875 C 61.078125 -18.757812 60.300781 -16.21875 58.75 -14.25 C 54.894531 -9.5 50.285156 -5.832031 44.921875 -3.25 C 39.554688 -0.675781 34.375 0.609375 29.375 0.609375 Z M 29.375 0.609375 "/></g></g></g><g fill="#000000" fill-opacity="1"><g transform="translate(470.240574, 585.533262)"><g><path d="M 18.4375 0.609375 C 14.75 0.609375 11.738281 -1.085938 9.40625 -4.484375 C 7.070312 -7.890625 5.90625 -12.128906 5.90625 -17.203125 C 5.90625 -23.347656 6.3125 -28.976562 7.125 -34.09375 C 7.945312 -39.21875 9.300781 -44.648438 11.1875 -50.390625 C 12 -52.847656 13.144531 -54.609375 14.625 -55.671875 C 16.101562 -56.742188 18.4375 -57.28125 21.625 -57.28125 C 23.425781 -57.28125 24.675781 -56.988281 25.375 -56.40625 C 26.070312 -55.832031 26.421875 -54.972656 26.421875 -53.828125 C 26.421875 -53.171875 25.972656 -50.960938 25.078125 -47.203125 C 24.253906 -44.171875 23.597656 -41.425781 23.109375 -38.96875 C 21.460938 -30.363281 20.640625 -24.625 20.640625 -21.75 C 20.640625 -20.03125 20.84375 -18.820312 21.25 -18.125 C 21.664062 -17.425781 22.328125 -17.078125 23.234375 -17.078125 C 24.460938 -17.078125 26 -18.304688 27.84375 -20.765625 C 29.6875 -23.222656 31.648438 -26.953125 33.734375 -31.953125 C 35.828125 -36.953125 37.859375 -43.097656 39.828125 -50.390625 C 40.484375 -52.847656 41.484375 -54.609375 42.828125 -55.671875 C 44.179688 -56.742188 46.210938 -57.28125 48.921875 -57.28125 C 50.804688 -57.28125 52.113281 -57.050781 52.84375 -56.59375 C 53.582031 -56.144531 53.953125 -55.304688 53.953125 -54.078125 C 53.953125 -52.023438 52.929688 -46.410156 50.890625 -37.234375 C 48.585938 -26.753906 47.4375 -20.285156 47.4375 -17.828125 C 47.4375 -16.265625 47.765625 -15.050781 48.421875 -14.1875 C 49.078125 -13.332031 49.9375 -12.90625 51 -12.90625 C 52.644531 -12.90625 54.59375 -13.90625 56.84375 -15.90625 C 59.09375 -17.914062 62.101562 -21.175781 65.875 -25.6875 C 66.863281 -26.832031 67.972656 -27.40625 69.203125 -27.40625 C 70.265625 -27.40625 71.101562 -26.910156 71.71875 -25.921875 C 72.332031 -24.941406 72.640625 -23.59375 72.640625 -21.875 C 72.640625 -18.601562 71.859375 -16.0625 70.296875 -14.25 C 66.773438 -9.914062 62.984375 -6.351562 58.921875 -3.5625 C 54.867188 -0.78125 50.265625 0.609375 45.109375 0.609375 C 41.171875 0.609375 38.28125 -0.90625 36.4375 -3.9375 C 34.59375 -6.96875 33.671875 -11.226562 33.671875 -16.71875 C 32.285156 -11.144531 30.195312 -6.863281 27.40625 -3.875 C 24.625 -0.882812 21.632812 0.609375 18.4375 0.609375 Z M 18.4375 0.609375 "/></g></g></g><g fill="#000000" fill-opacity="1"><g transform="translate(527.014633, 585.533262)"><g><path d="M 14.625 0.609375 C 11.507812 0.609375 9.316406 -1.023438 8.046875 -4.296875 C 6.773438 -7.578125 6.140625 -12.820312 6.140625 -20.03125 C 6.140625 -30.6875 7.65625 -40.804688 10.6875 -50.390625 C 11.425781 -52.765625 12.632812 -54.503906 14.3125 -55.609375 C 16 -56.722656 18.359375 -57.28125 21.390625 -57.28125 C 23.023438 -57.28125 24.171875 -57.070312 24.828125 -56.65625 C 25.484375 -56.25 25.8125 -55.472656 25.8125 -54.328125 C 25.8125 -53.015625 25.195312 -50.0625 23.96875 -45.46875 C 23.144531 -42.195312 22.488281 -39.332031 22 -36.875 C 21.507812 -34.414062 21.097656 -31.382812 20.765625 -27.78125 C 23.472656 -34.820312 26.503906 -40.554688 29.859375 -44.984375 C 33.222656 -49.410156 36.519531 -52.566406 39.75 -54.453125 C 42.988281 -56.335938 45.960938 -57.28125 48.671875 -57.28125 C 53.992188 -57.28125 56.65625 -54.613281 56.65625 -49.28125 C 56.65625 -46.082031 55.753906 -40.304688 53.953125 -31.953125 C 52.398438 -24.828125 51.625 -20.117188 51.625 -17.828125 C 51.625 -14.546875 52.8125 -12.90625 55.1875 -12.90625 C 56.820312 -12.90625 58.765625 -13.90625 61.015625 -15.90625 C 63.273438 -17.914062 66.289062 -21.175781 70.0625 -25.6875 C 71.039062 -26.832031 72.144531 -27.40625 73.375 -27.40625 C 74.4375 -27.40625 75.273438 -26.910156 75.890625 -25.921875 C 76.503906 -24.941406 76.8125 -23.59375 76.8125 -21.875 C 76.8125 -18.601562 76.035156 -16.0625 74.484375 -14.25 C 70.960938 -9.914062 67.171875 -6.351562 63.109375 -3.5625 C 59.054688 -0.78125 54.445312 0.609375 49.28125 0.609375 C 45.101562 0.609375 41.945312 -0.597656 39.8125 -3.015625 C 37.6875 -5.429688 36.625 -8.929688 36.625 -13.515625 C 36.625 -15.816406 37.195312 -19.914062 38.34375 -25.8125 C 39.40625 -30.96875 39.9375 -34.53125 39.9375 -36.5 C 39.9375 -37.8125 39.488281 -38.46875 38.59375 -38.46875 C 37.53125 -38.46875 36.035156 -37.09375 34.109375 -34.34375 C 32.179688 -31.601562 30.210938 -27.976562 28.203125 -23.46875 C 26.203125 -18.96875 24.585938 -14.21875 23.359375 -9.21875 C 22.453125 -5.363281 21.40625 -2.757812 20.21875 -1.40625 C 19.03125 -0.0625 17.164062 0.609375 14.625 0.609375 Z M 14.625 0.609375 "/></g></g></g></svg>