<svg xmlns="http://www.w3.org/2000/svg" xmlns:xlink="http://www.w3.org/1999/xlink" width="1080" zoomAndPan="magnify" viewBox="0 0 810 809.999993" height="1080" preserveAspectRatio="xMidYMid meet" version="1.0"><defs><g/><clipPath id="eedf453cbe"><path d="M 618.359375 252.183594 L 655.558594 252.183594 L 655.558594 284.632812 L 618.359375 284.632812 Z M 618.359375 252.183594 " clip-rule="nonzero"/></clipPath><clipPath id="564c6e0fa4"><path d="M 236 446 L 574 446 L 574 452.167969 L 236 452.167969 Z M 236 446 " clip-rule="nonzero"/></clipPath><clipPath id="0f515d22ce"><path d="M 236 448 L 574 448 L 574 454.207031 L 236 454.207031 Z M 236 448 " clip-rule="nonzero"/></clipPath><clipPath id="6a3e5fdde3"><path d="M 236 449 L 574 449 L 574 455.15625 L 236 455.15625 Z M 236 449 " clip-rule="nonzero"/></clipPath></defs><g fill="#ffe63e" fill-opacity="1"><g transform="translate(10.817042, 424.670444)"><g><path d="M 105.1875 -100.90625 C 105.1875 -87.425781 99.351562 -77.1875 87.6875 -70.1875 C 94.03125 -67.851562 99.34375 -63.832031 103.625 -58.125 C 107.90625 -52.425781 110.046875 -44.359375 110.046875 -33.921875 C 110.046875 -23.492188 106.1875 -15.234375 98.46875 -9.140625 C 90.757812 -3.046875 79.710938 0 65.328125 0 L 19.4375 0 C 17.238281 0 15.425781 -0.742188 14 -2.234375 C 12.570312 -3.722656 11.859375 -5.703125 11.859375 -8.171875 L 11.859375 -132.59375 C 11.859375 -134.019531 12.082031 -134.957031 12.53125 -135.40625 C 12.988281 -135.863281 13.929688 -136.09375 15.359375 -136.09375 L 59.6875 -136.09375 C 90.019531 -136.09375 105.1875 -124.363281 105.1875 -100.90625 Z M 49.1875 -104.59375 L 49.1875 -79.125 L 50.15625 -79.125 C 62.601562 -79.125 68.828125 -83.273438 68.828125 -91.578125 C 68.828125 -96.109375 67.625 -99.410156 65.21875 -101.484375 C 62.820312 -103.554688 58.835938 -104.59375 53.265625 -104.59375 Z M 49.1875 -56.1875 L 49.1875 -30.90625 L 52.6875 -30.90625 C 58.257812 -30.90625 62.34375 -31.941406 64.9375 -34.015625 C 67.53125 -36.097656 68.828125 -39.40625 68.828125 -43.9375 C 68.828125 -48.476562 67.625 -51.65625 65.21875 -53.46875 C 62.820312 -55.28125 58.835938 -56.1875 53.265625 -56.1875 Z M 49.1875 -56.1875 "/></g></g></g><g fill="#ffe63e" fill-opacity="1"><g transform="translate(129.411235, 424.670444)"><g><path d="M 72.90625 -82.046875 C 75.375 -82.046875 76.609375 -77.507812 76.609375 -68.4375 C 76.609375 -65.71875 76.316406 -62.507812 75.734375 -58.8125 C 75.148438 -55.113281 74.078125 -53.265625 72.515625 -53.265625 L 47.828125 -53.265625 L 47.828125 -33.828125 L 83.59375 -33.828125 C 85.800781 -33.828125 87.296875 -30.976562 88.078125 -25.28125 C 88.460938 -22.8125 88.65625 -20.179688 88.65625 -17.390625 C 88.65625 -14.609375 88.265625 -11.015625 87.484375 -6.609375 C 86.710938 -2.203125 85.414062 0 83.59375 0 L 17.109375 0 C 12.179688 0 9.71875 -2.007812 9.71875 -6.03125 L 9.71875 -131.046875 C 9.71875 -134.410156 11.207031 -136.09375 14.1875 -136.09375 L 83.796875 -136.09375 C 86.515625 -136.09375 87.875 -130.359375 87.875 -118.890625 C 87.875 -107.421875 86.515625 -101.6875 83.796875 -101.6875 L 47.828125 -101.6875 L 47.828125 -82.046875 Z M 72.90625 -82.046875 "/></g></g></g><g fill="#ffe63e" fill-opacity="1"><g transform="translate(228.36936, 424.670444)"><g><path d="M 116.265625 -4.28125 C 116.265625 -1.550781 110.171875 -0.1875 97.984375 -0.1875 C 85.804688 -0.1875 79.195312 -1.160156 78.15625 -3.109375 L 45.6875 -63.765625 L 45.6875 -3.3125 C 45.6875 -0.976562 39.691406 0.1875 27.703125 0.1875 C 15.710938 0.1875 9.71875 -0.976562 9.71875 -3.3125 L 9.71875 -133.375 C 9.71875 -135.320312 14.835938 -136.296875 25.078125 -136.296875 C 29.097656 -136.296875 33.796875 -135.9375 39.171875 -135.21875 C 44.554688 -134.507812 47.832031 -133.179688 49 -131.234375 L 80.109375 -71.359375 L 80.109375 -132.40625 C 80.109375 -134.863281 86.132812 -136.09375 98.1875 -136.09375 C 110.238281 -136.09375 116.265625 -134.863281 116.265625 -132.40625 Z M 116.265625 -4.28125 "/></g></g></g><g fill="#ffe63e" fill-opacity="1"><g transform="translate(357.462032, 424.670444)"><g><path d="M 9.71875 -8.9375 L 9.71875 -125.59375 C 9.71875 -128.832031 10.523438 -131.390625 12.140625 -133.265625 C 13.765625 -135.148438 15.875 -136.09375 18.46875 -136.09375 L 50.9375 -136.09375 C 71.550781 -136.09375 87.203125 -130.90625 97.890625 -120.53125 C 108.585938 -110.164062 113.9375 -93.835938 113.9375 -71.546875 C 113.9375 -23.847656 93.582031 0 52.875 0 L 19.640625 0 C 13.023438 0 9.71875 -2.976562 9.71875 -8.9375 Z M 47.046875 -99.15625 L 47.046875 -41.015625 C 47.046875 -38.296875 47.238281 -36.578125 47.625 -35.859375 C 48.019531 -35.148438 49.191406 -34.796875 51.140625 -34.796875 C 58.265625 -34.796875 63.671875 -37.453125 67.359375 -42.765625 C 71.054688 -48.085938 72.90625 -56.9375 72.90625 -69.3125 C 72.90625 -81.6875 70.992188 -89.753906 67.171875 -93.515625 C 63.347656 -97.273438 57.289062 -99.15625 49 -99.15625 Z M 47.046875 -99.15625 "/></g></g></g><g fill="#ffe63e" fill-opacity="1"><g transform="translate(480.33337, 424.670444)"><g><path d="M 22.546875 -33.4375 L 22.546875 -102.65625 L 8.75 -102.65625 C 6.539062 -102.65625 4.984375 -105.441406 4.078125 -111.015625 C 3.691406 -113.734375 3.5 -116.519531 3.5 -119.375 C 3.5 -122.226562 3.691406 -125.015625 4.078125 -127.734375 C 4.984375 -133.304688 6.539062 -136.09375 8.75 -136.09375 L 74.078125 -136.09375 C 76.273438 -136.09375 77.765625 -133.304688 78.546875 -127.734375 C 79.066406 -125.015625 79.328125 -122.226562 79.328125 -119.375 C 79.328125 -116.519531 79.066406 -113.734375 78.546875 -111.015625 C 77.765625 -105.441406 76.273438 -102.65625 74.078125 -102.65625 L 61.046875 -102.65625 L 61.046875 -33.4375 L 74.65625 -33.4375 C 76.863281 -33.4375 78.421875 -30.648438 79.328125 -25.078125 C 79.847656 -22.359375 80.109375 -19.570312 80.109375 -16.71875 C 80.109375 -13.863281 79.847656 -11.078125 79.328125 -8.359375 C 78.421875 -2.785156 76.863281 0 74.65625 0 L 9.140625 0 C 6.929688 0 5.441406 -2.785156 4.671875 -8.359375 C 4.148438 -11.078125 3.890625 -13.863281 3.890625 -16.71875 C 3.890625 -19.570312 4.148438 -22.359375 4.671875 -25.078125 C 5.441406 -30.648438 6.929688 -33.4375 9.140625 -33.4375 Z M 22.546875 -33.4375 "/></g></g></g><g fill="#ffe63e" fill-opacity="1"><g transform="translate(574.274567, 426.306409)"><g><path d="M 65.546875 -1.4375 C 65.546875 0.476562 58.875 1.4375 45.53125 1.4375 C 29.632812 0.800781 21.6875 -0.234375 21.6875 -1.671875 L 21.6875 -86.046875 L 9.53125 -86.046875 C 6.351562 -86.046875 4.765625 -91.53125 4.765625 -102.5 C 4.765625 -105.363281 5.039062 -108.859375 5.59375 -112.984375 C 6.15625 -117.117188 7.3125 -119.1875 9.0625 -119.1875 L 21.6875 -119.1875 L 21.6875 -140.171875 C 21.6875 -143.347656 28.398438 -144.9375 41.828125 -144.9375 C 55.265625 -144.9375 61.984375 -143.664062 61.984375 -141.125 L 61.984375 -125.859375 L 62.21875 -119.1875 L 82.484375 -119.1875 C 85.179688 -119.1875 86.53125 -113.625 86.53125 -102.5 C 86.53125 -91.375 85.179688 -85.8125 82.484375 -85.8125 L 65.546875 -85.8125 Z M 65.546875 -1.4375 "/></g></g></g><g fill="#ffe63e" fill-opacity="1"><g transform="translate(663.53025, 424.634657)"><g><path d="M 100.90625 0.390625 C 89.65625 0.390625 83.578125 -1.421875 82.671875 -5.046875 L 76.265625 -30.078125 L 45.40625 -30.078125 L 39.78125 -6.015625 C 39.007812 -2.003906 32.800781 0 21.15625 0 C 14.945312 0 10.351562 -0.351562 7.375 -1.0625 C 4.394531 -1.78125 2.90625 -2.332031 2.90625 -2.71875 L 37.265625 -134.09375 C 37.265625 -135.132812 46.125 -135.65625 63.84375 -135.65625 C 81.570312 -135.65625 90.4375 -135.132812 90.4375 -134.09375 L 124 -2.515625 C 124 -1.617188 121.023438 -0.910156 115.078125 -0.390625 C 109.128906 0.128906 104.40625 0.390625 100.90625 0.390625 Z M 50.265625 -54.71875 L 70.640625 -54.71875 L 61.90625 -94.890625 L 60.734375 -94.890625 Z M 50.265625 -54.71875 "/></g></g></g><g clip-path="url(#eedf453cbe)"><path fill="#ffe63e" d="M 652.535156 278.828125 C 652.203125 279.453125 649.605469 280.8125 648.4375 281.59375 C 647.25 282.390625 644.871094 283.207031 643.511719 283.457031 C 640.371094 284.035156 637.625 283.644531 634.804688 282.582031 C 634.203125 282.359375 634.390625 282.199219 633.648438 281.976562 C 632.414062 281.605469 631.566406 280.84375 630.597656 279.960938 C 628.964844 278.472656 626.933594 274.773438 625.921875 272.75 C 625.707031 272.324219 625.535156 271.992188 625.367188 271.554688 C 624.875 270.238281 623.714844 268.4375 622.574219 267.679688 C 621.640625 267.058594 620.640625 266.773438 620.328125 266.617188 C 620.519531 265.984375 620.878906 265.980469 621.472656 265.710938 C 622.777344 265.128906 625.203125 264.988281 626.378906 265.621094 C 627.277344 266.105469 627.972656 266.644531 628.558594 267.410156 C 628.875 267.824219 629.269531 268.144531 629.601562 268.425781 C 630.277344 269.003906 629.820312 269.238281 630.617188 269.292969 C 630.953125 268.722656 630.726562 268.773438 630.703125 268.324219 C 630.6875 268.015625 630.808594 267.65625 630.871094 267.359375 C 631.023438 266.660156 631.167969 266.097656 631.363281 265.464844 L 632.53125 262.953125 C 632.738281 262.683594 634.996094 260.703125 635.769531 260.363281 C 636.40625 260.089844 636.800781 259.933594 637.460938 259.664062 C 638.019531 259.4375 638.59375 259.289062 639.175781 259 L 642.703125 257.8125 C 644.683594 257.449219 646.285156 256.828125 648.136719 256.082031 L 653.128906 253.867188 C 652.882812 255.160156 651.769531 255.992188 650.992188 256.71875 C 648.636719 258.925781 648.367188 257.597656 648.242188 258.691406 C 648.292969 258.722656 651.488281 259.265625 650.082031 261.035156 C 649.25 262.082031 645.570312 262.542969 647.890625 262.976562 C 648.953125 263.175781 649.167969 264.292969 649.160156 264.398438 C 649.089844 265.089844 647.171875 266.628906 645.414062 266.6875 C 645.160156 267.9375 645.886719 266.953125 646.644531 267.886719 C 647.304688 269.515625 645.523438 270.957031 643.765625 270.453125 C 643.433594 270.953125 643.765625 270.546875 643.425781 270.796875 C 644.0625 271.871094 644.339844 271.957031 643.011719 272.832031 C 640.96875 274.175781 641.660156 273.457031 639.964844 273.90625 C 638.445312 274.3125 638.75 274.71875 638.714844 274.785156 C 638.441406 275.167969 640.433594 276.882812 640.746094 277.117188 C 642.921875 278.714844 643.640625 278.703125 645.972656 278.988281 C 649.347656 279.40625 649.304688 279.097656 652.535156 278.828125 Z M 630.0625 267.671875 C 629.648438 267.59375 629.648438 267.464844 629.417969 267.183594 C 629.207031 266.9375 629.136719 266.851562 628.890625 266.601562 C 627.882812 265.582031 626.273438 264.507812 624.648438 264.484375 C 623.21875 264.460938 622.234375 264.472656 621.03125 265.128906 C 620.546875 265.390625 618.378906 266.582031 619.054688 267.253906 C 619.667969 267.519531 620.210938 267.332031 620.816406 267.53125 C 622.527344 268.097656 624.046875 269.851562 624.640625 271.347656 C 624.824219 271.808594 624.953125 272.15625 625.203125 272.660156 C 625.417969 273.09375 625.566406 273.472656 625.828125 273.949219 L 628.667969 278.71875 C 628.855469 278.984375 628.921875 279.027344 629.089844 279.253906 L 630.238281 280.488281 C 630.363281 280.589844 630.257812 280.507812 630.503906 280.691406 C 630.941406 281.019531 631.0625 281.210938 631.527344 281.5625 C 632.976562 282.660156 635.144531 283.394531 636.898438 283.964844 C 637.996094 284.324219 638.925781 284.300781 639.96875 284.351562 C 641.066406 284.40625 642.074219 284.464844 642.9375 284.195312 C 643.921875 283.886719 644.828125 283.6875 645.914062 283.339844 C 648.398438 282.542969 648.710938 281.902344 649.621094 281.34375 C 650.46875 280.820312 652.257812 280.03125 653.152344 279.167969 C 654.3125 278.042969 655.019531 278.226562 655.179688 277.398438 C 654.746094 277.503906 654.53125 277.65625 654.132812 277.769531 C 653.765625 277.871094 653.445312 277.855469 653.046875 277.941406 C 650.480469 278.488281 648.617188 278.621094 646.019531 278.320312 C 644.660156 278.164062 643.394531 278.117188 641.878906 277.234375 C 641.109375 276.785156 639.628906 275.382812 639.4375 274.5 C 640.964844 274.5 641.789062 274.382812 643 273.773438 C 645.421875 272.550781 644.421875 272.378906 644.941406 271.136719 C 646.007812 271.050781 646.765625 270.402344 647.152344 269.679688 C 647.824219 268.410156 647.453125 267.882812 646.921875 266.949219 C 648.019531 266.550781 650.046875 265.304688 649.699219 263.800781 C 649.539062 263.09375 649.28125 263.226562 649.015625 262.496094 C 650.613281 261.300781 650.464844 261.925781 650.882812 260.710938 C 651.507812 258.914062 650.484375 259.4375 650.011719 258.140625 C 651.988281 257.542969 653.675781 254.644531 654.578125 252.820312 C 654.464844 252.640625 654.363281 252.425781 654.242188 252.1875 C 653.625 252.277344 653.835938 252.292969 653.476562 252.691406 C 652.609375 253.65625 647.109375 255.828125 645.78125 256.238281 L 642.847656 257.117188 C 640.152344 257.824219 638.785156 258.367188 636.285156 259.265625 C 635.902344 259.40625 634.820312 259.9375 634.59375 260.128906 C 634.199219 260.457031 633.773438 260.808594 633.339844 261.253906 C 631.710938 262.921875 633.191406 260.585938 631.121094 264.109375 C 630.613281 264.976562 630.140625 266.691406 630.0625 267.671875 " fill-opacity="1" fill-rule="evenodd"/></g><path fill="#ffe63e" d="M 652.535156 278.828125 C 652.203125 279.453125 649.605469 280.8125 648.4375 281.59375 C 647.25 282.390625 644.871094 283.207031 643.511719 283.457031 C 640.371094 284.035156 637.625 283.644531 634.804688 282.582031 C 634.203125 282.359375 634.390625 282.199219 633.648438 281.976562 C 632.414062 281.605469 631.566406 280.84375 630.597656 279.960938 C 628.964844 278.472656 626.933594 274.773438 625.921875 272.75 C 625.707031 272.324219 625.535156 271.992188 625.367188 271.554688 C 624.875 270.238281 623.714844 268.4375 622.574219 267.679688 C 621.640625 267.058594 620.640625 266.773438 620.328125 266.617188 C 620.519531 265.984375 620.878906 265.980469 621.472656 265.710938 C 622.777344 265.128906 625.203125 264.988281 626.378906 265.621094 C 627.277344 266.105469 627.972656 266.644531 628.558594 267.410156 C 628.875 267.824219 629.269531 268.144531 629.601562 268.425781 C 630.277344 269.003906 629.820312 269.238281 630.617188 269.292969 C 630.953125 268.722656 630.726562 268.773438 630.703125 268.324219 C 630.6875 268.015625 630.808594 267.65625 630.871094 267.359375 C 631.023438 266.660156 631.167969 266.097656 631.363281 265.464844 L 632.53125 262.953125 C 632.738281 262.683594 634.996094 260.703125 635.769531 260.363281 C 636.40625 260.089844 636.800781 259.933594 637.460938 259.664062 C 638.019531 259.4375 638.59375 259.289062 639.175781 259 L 642.703125 257.8125 C 644.683594 257.449219 646.285156 256.828125 648.136719 256.082031 L 653.128906 253.867188 C 652.882812 255.160156 651.769531 255.992188 650.992188 256.71875 C 648.636719 258.925781 648.367188 257.597656 648.242188 258.691406 C 648.292969 258.722656 651.488281 259.265625 650.082031 261.035156 C 649.25 262.082031 645.570312 262.542969 647.890625 262.976562 C 648.953125 263.175781 649.167969 264.292969 649.160156 264.398438 C 649.089844 265.089844 647.171875 266.628906 645.414062 266.6875 C 645.160156 267.9375 645.886719 266.953125 646.644531 267.886719 C 647.304688 269.515625 645.523438 270.957031 643.765625 270.453125 C 643.433594 270.953125 643.765625 270.546875 643.425781 270.796875 C 644.0625 271.871094 644.339844 271.957031 643.011719 272.832031 C 640.96875 274.175781 641.660156 273.457031 639.964844 273.90625 C 638.445312 274.3125 638.75 274.71875 638.714844 274.785156 C 638.441406 275.167969 640.433594 276.882812 640.746094 277.117188 C 642.921875 278.714844 643.640625 278.703125 645.972656 278.988281 C 649.347656 279.40625 649.304688 279.097656 652.535156 278.828125 " fill-opacity="1" fill-rule="evenodd"/><g fill="#ffe63e" fill-opacity="1"><g transform="translate(96.101446, 550.281267)"><g><path d="M 31.40625 0 L 27.453125 0 C 26.796875 0 26.253906 -0.203125 25.828125 -0.609375 C 25.410156 -1.015625 25.203125 -1.539062 25.203125 -2.1875 L 25.203125 -63.921875 L 4.296875 -63.921875 C 2.828125 -63.921875 2.09375 -64.703125 2.09375 -66.265625 L 2.09375 -70.265625 C 2.09375 -70.910156 2.296875 -71.425781 2.703125 -71.8125 C 3.109375 -72.207031 3.640625 -72.40625 4.296875 -72.40625 L 54.46875 -72.40625 C 55.082031 -72.40625 55.609375 -72.21875 56.046875 -71.84375 C 56.484375 -71.46875 56.734375 -70.941406 56.796875 -70.265625 L 56.796875 -66.265625 C 56.796875 -65.578125 56.59375 -65.015625 56.1875 -64.578125 C 55.78125 -64.140625 55.207031 -63.921875 54.46875 -63.921875 L 33.640625 -63.921875 L 33.640625 -2.1875 C 33.640625 -1.539062 33.441406 -1.015625 33.046875 -0.609375 C 32.660156 -0.203125 32.113281 0 31.40625 0 Z M 31.40625 0 "/></g></g></g><g fill="#ffe63e" fill-opacity="1"><g transform="translate(161.971047, 550.281267)"><g><path d="M 8.625 0 L 4.4375 0 C 3.039062 0 2.34375 -0.519531 2.34375 -1.5625 C 2.34375 -1.625 2.347656 -1.734375 2.359375 -1.890625 C 2.378906 -2.054688 2.40625 -2.253906 2.4375 -2.484375 L 18.875 -42.03125 L 30.8125 -70.59375 C 30.976562 -71.113281 31.226562 -71.546875 31.5625 -71.890625 C 31.90625 -72.234375 32.46875 -72.40625 33.25 -72.40625 L 36.125 -72.40625 C 36.84375 -72.40625 37.351562 -72.242188 37.65625 -71.921875 C 37.96875 -71.597656 38.253906 -71.15625 38.515625 -70.59375 L 66.609375 -2.78125 C 66.609375 -2.6875 66.671875 -2.523438 66.796875 -2.296875 C 66.890625 -2.003906 66.9375 -1.757812 66.9375 -1.5625 C 66.9375 -0.519531 66.207031 0 64.75 0 L 60.5625 0 C 59.289062 0 58.410156 -0.617188 57.921875 -1.859375 L 52.265625 -15.84375 L 16.828125 -15.84375 L 11.3125 -1.953125 C 10.789062 -0.648438 9.894531 0 8.625 0 Z M 20.328125 -24.140625 L 48.859375 -24.140625 L 34.671875 -59.828125 Z M 20.328125 -24.140625 "/></g></g></g><g fill="#ffe63e" fill-opacity="1"><g transform="translate(238.079343, 550.281267)"><g><path d="M 11.359375 0 L 7.265625 0 C 5.804688 0 5.078125 -0.710938 5.078125 -2.140625 C 5.847656 -9.847656 6.796875 -19.132812 7.921875 -30 C 9.046875 -40.875 10.351562 -53.351562 11.84375 -67.4375 L 12.140625 -70.265625 C 12.140625 -70.878906 12.359375 -71.390625 12.796875 -71.796875 C 13.234375 -72.203125 13.78125 -72.40625 14.4375 -72.40625 L 20.53125 -72.40625 C 21.53125 -72.40625 22.242188 -71.769531 22.671875 -70.5 L 45.25 -16.140625 L 56.609375 -43.34375 C 58.296875 -47.3125 60.070312 -51.5625 61.9375 -56.09375 C 63.8125 -60.625 65.789062 -65.425781 67.875 -70.5 C 68.226562 -71.769531 68.925781 -72.40625 69.96875 -72.40625 L 76.25 -72.40625 C 76.90625 -72.40625 77.425781 -72.203125 77.8125 -71.796875 C 78.207031 -71.390625 78.40625 -70.878906 78.40625 -70.265625 L 85.515625 -2.140625 C 85.515625 -0.710938 84.785156 0 83.328125 0 L 79.234375 0 C 77.765625 0 77.03125 -0.710938 77.03125 -2.140625 L 71.578125 -57.625 L 49.203125 -4.921875 C 48.710938 -3.722656 48.03125 -3.125 47.15625 -3.125 L 43.296875 -3.125 C 42.484375 -3.125 41.832031 -3.722656 41.34375 -4.921875 L 18.96875 -57.625 L 13.546875 -2.140625 C 13.546875 -0.710938 12.816406 0 11.359375 0 Z M 11.359375 0 "/></g></g></g><g fill="#ffe63e" fill-opacity="1"><g transform="translate(334.665046, 550.281267)"><g><path d="M 8.625 0 L 4.4375 0 C 3.039062 0 2.34375 -0.519531 2.34375 -1.5625 C 2.34375 -1.625 2.347656 -1.734375 2.359375 -1.890625 C 2.378906 -2.054688 2.40625 -2.253906 2.4375 -2.484375 L 18.875 -42.03125 L 30.8125 -70.59375 C 30.976562 -71.113281 31.226562 -71.546875 31.5625 -71.890625 C 31.90625 -72.234375 32.46875 -72.40625 33.25 -72.40625 L 36.125 -72.40625 C 36.84375 -72.40625 37.351562 -72.242188 37.65625 -71.921875 C 37.96875 -71.597656 38.253906 -71.15625 38.515625 -70.59375 L 66.609375 -2.78125 C 66.609375 -2.6875 66.671875 -2.523438 66.796875 -2.296875 C 66.890625 -2.003906 66.9375 -1.757812 66.9375 -1.5625 C 66.9375 -0.519531 66.207031 0 64.75 0 L 60.5625 0 C 59.289062 0 58.410156 -0.617188 57.921875 -1.859375 L 52.265625 -15.84375 L 16.828125 -15.84375 L 11.3125 -1.953125 C 10.789062 -0.648438 9.894531 0 8.625 0 Z M 20.328125 -24.140625 L 48.859375 -24.140625 L 34.671875 -59.828125 Z M 20.328125 -24.140625 "/></g></g></g><g fill="#ffe63e" fill-opacity="1"><g transform="translate(410.773348, 550.281267)"><g><path d="M 51.484375 0 L 10.046875 0 C 8.617188 0 7.90625 -0.710938 7.90625 -2.140625 L 7.90625 -70.265625 C 7.90625 -70.878906 8.109375 -71.390625 8.515625 -71.796875 C 8.921875 -72.203125 9.460938 -72.40625 10.140625 -72.40625 L 14.1875 -72.40625 C 14.800781 -72.40625 15.3125 -72.207031 15.71875 -71.8125 C 16.125 -71.425781 16.328125 -70.910156 16.328125 -70.265625 L 16.328125 -8.34375 L 51.484375 -8.34375 C 52.109375 -8.34375 52.625 -8.140625 53.03125 -7.734375 C 53.4375 -7.328125 53.640625 -6.78125 53.640625 -6.09375 L 53.640625 -2.140625 C 53.640625 -1.523438 53.441406 -1.015625 53.046875 -0.609375 C 52.660156 -0.203125 52.140625 0 51.484375 0 Z M 51.484375 0 "/></g></g></g><g fill="#ffe63e" fill-opacity="1"><g transform="translate(472.986282, 550.281267)"><g><path d="M 57.34375 0 L 10.046875 0 C 8.617188 0 7.90625 -0.679688 7.90625 -2.046875 L 7.90625 -70.15625 C 7.90625 -71.65625 8.617188 -72.40625 10.046875 -72.40625 L 56.953125 -72.40625 C 58.410156 -72.40625 59.140625 -71.640625 59.140625 -70.109375 L 59.140625 -66.171875 C 59.140625 -65.546875 58.9375 -65.015625 58.53125 -64.578125 C 58.125 -64.140625 57.566406 -63.921875 56.859375 -63.921875 L 16.328125 -63.921875 L 16.328125 -42.375 L 48.5625 -42.375 C 49.175781 -42.375 49.6875 -42.1875 50.09375 -41.8125 C 50.5 -41.4375 50.703125 -40.875 50.703125 -40.125 L 50.703125 -36.125 C 50.703125 -35.507812 50.515625 -34.984375 50.140625 -34.546875 C 49.773438 -34.109375 49.25 -33.890625 48.5625 -33.890625 L 16.328125 -33.890625 L 16.328125 -8.484375 L 57.296875 -8.484375 C 58.753906 -8.484375 59.484375 -7.71875 59.484375 -6.1875 L 59.484375 -2.140625 C 59.484375 -0.710938 58.769531 0 57.34375 0 Z M 57.34375 0 "/></g></g></g><g fill="#ffe63e" fill-opacity="1"><g transform="translate(541.878722, 550.281267)"><g><path d="M 14.1875 0 L 10.046875 0 C 8.617188 0 7.90625 -0.710938 7.90625 -2.140625 L 7.90625 -70.0625 C 7.90625 -71.625 8.617188 -72.40625 10.046875 -72.40625 L 38.21875 -72.40625 C 41.40625 -72.40625 44.390625 -71.8125 47.171875 -70.625 C 49.953125 -69.4375 52.390625 -67.785156 54.484375 -65.671875 C 56.578125 -63.554688 58.207031 -61.109375 59.375 -58.328125 C 60.550781 -55.554688 61.140625 -52.578125 61.140625 -49.390625 C 61.140625 -46.398438 60.59375 -43.554688 59.5 -40.859375 C 58.414062 -38.160156 56.878906 -35.753906 54.890625 -33.640625 C 52.910156 -31.523438 50.554688 -29.835938 47.828125 -28.578125 L 60.65625 -2.140625 C 60.820312 -1.648438 60.90625 -1.359375 60.90625 -1.265625 C 60.90625 -0.421875 60.316406 0 59.140625 0 L 53.734375 0 C 53.117188 0 52.625 -0.148438 52.25 -0.453125 C 51.875 -0.765625 51.539062 -1.234375 51.25 -1.859375 L 39.4375 -26.671875 C 39.1875 -26.640625 38.820312 -26.613281 38.34375 -26.59375 C 37.875 -26.582031 37.296875 -26.578125 36.609375 -26.578125 C 36.390625 -26.546875 36.128906 -26.53125 35.828125 -26.53125 C 35.535156 -26.53125 35.179688 -26.53125 34.765625 -26.53125 L 16.328125 -26.53125 L 16.328125 -2.140625 C 16.328125 -0.710938 15.613281 0 14.1875 0 Z M 16.328125 -34.859375 L 38.375 -34.859375 C 40.382812 -34.859375 42.257812 -35.238281 44 -36 C 45.738281 -36.769531 47.265625 -37.820312 48.578125 -39.15625 C 49.898438 -40.488281 50.9375 -42.039062 51.6875 -43.8125 C 52.4375 -45.582031 52.8125 -47.457031 52.8125 -49.4375 C 52.8125 -51.457031 52.4375 -53.34375 51.6875 -55.09375 C 50.9375 -56.851562 49.882812 -58.40625 48.53125 -59.75 C 47.1875 -61.101562 45.632812 -62.160156 43.875 -62.921875 C 42.125 -63.679688 40.238281 -64.0625 38.21875 -64.0625 L 16.328125 -64.0625 Z M 16.328125 -34.859375 "/></g></g></g><g fill="#ffe63e" fill-opacity="1"><g transform="translate(613.55026, 550.281267)"><g><path d="M 14.140625 0 L 10.09375 0 C 8.632812 0 7.90625 -0.710938 7.90625 -2.140625 L 7.90625 -70.265625 C 7.90625 -71.691406 8.632812 -72.40625 10.09375 -72.40625 L 14.140625 -72.40625 C 14.785156 -72.40625 15.3125 -72.207031 15.71875 -71.8125 C 16.125 -71.425781 16.328125 -70.910156 16.328125 -70.265625 L 16.328125 -2.140625 C 16.328125 -0.710938 15.597656 0 14.140625 0 Z M 14.140625 0 "/></g></g></g><g fill="#ffe63e" fill-opacity="1"><g transform="translate(644.023212, 550.281267)"><g><path d="M 8.625 0 L 4.4375 0 C 3.039062 0 2.34375 -0.519531 2.34375 -1.5625 C 2.34375 -1.625 2.347656 -1.734375 2.359375 -1.890625 C 2.378906 -2.054688 2.40625 -2.253906 2.4375 -2.484375 L 18.875 -42.03125 L 30.8125 -70.59375 C 30.976562 -71.113281 31.226562 -71.546875 31.5625 -71.890625 C 31.90625 -72.234375 32.46875 -72.40625 33.25 -72.40625 L 36.125 -72.40625 C 36.84375 -72.40625 37.351562 -72.242188 37.65625 -71.921875 C 37.96875 -71.597656 38.253906 -71.15625 38.515625 -70.59375 L 66.609375 -2.78125 C 66.609375 -2.6875 66.671875 -2.523438 66.796875 -2.296875 C 66.890625 -2.003906 66.9375 -1.757812 66.9375 -1.5625 C 66.9375 -0.519531 66.207031 0 64.75 0 L 60.5625 0 C 59.289062 0 58.410156 -0.617188 57.921875 -1.859375 L 52.265625 -15.84375 L 16.828125 -15.84375 L 11.3125 -1.953125 C 10.789062 -0.648438 9.894531 0 8.625 0 Z M 20.328125 -24.140625 L 48.859375 -24.140625 L 34.671875 -59.828125 Z M 20.328125 -24.140625 "/></g></g></g><g clip-path="url(#564c6e0fa4)"><path fill="#ffe63e" d="M 573.6875 449.179688 C 573.6875 450.828125 572.351562 452.167969 570.699219 452.167969 L 239.289062 452.167969 C 237.640625 452.167969 236.304688 450.828125 236.304688 449.179688 C 236.304688 447.53125 237.640625 446.191406 239.289062 446.191406 L 570.699219 446.191406 C 572.351562 446.191406 573.6875 447.53125 573.6875 449.179688 Z M 573.6875 449.179688 " fill-opacity="1" fill-rule="nonzero"/></g><g clip-path="url(#0f515d22ce)"><path fill="#ffe63e" d="M 573.6875 451.222656 C 573.6875 452.871094 572.351562 454.207031 570.699219 454.207031 L 239.289062 454.207031 C 237.640625 454.207031 236.304688 452.871094 236.304688 451.222656 C 236.304688 449.570312 237.640625 448.234375 239.289062 448.234375 L 570.699219 448.234375 C 572.351562 448.234375 573.6875 449.570312 573.6875 451.222656 Z M 573.6875 451.222656 " fill-opacity="1" fill-rule="nonzero"/></g><g clip-path="url(#6a3e5fdde3)"><path fill="#ffe63e" d="M 573.6875 452.171875 C 573.6875 453.820312 572.351562 455.15625 570.699219 455.15625 L 239.289062 455.15625 C 237.640625 455.15625 236.304688 453.820312 236.304688 452.171875 C 236.304688 450.523438 237.640625 449.183594 239.289062 449.183594 L 570.699219 449.183594 C 572.351562 449.183594 573.6875 450.523438 573.6875 452.171875 Z M 573.6875 452.171875 " fill-opacity="1" fill-rule="nonzero"/></g></svg>